<svg width="93" height="44" viewBox="0 0 93 44" fill="none" xmlns="http://www.w3.org/2000/svg">
<path d="M40.646 39.5283C37.6687 38.0188 34.3106 37.1694 30.7578 37.1694C30.472 37.1694 30.1905 37.1736 29.9089 37.1862C29.6315 37.1736 29.3499 37.1694 29.0683 37.1694C28.7743 37.1694 28.4803 37.1736 28.1863 37.1905C27.0766 37.2325 25.9793 37.3586 24.9151 37.5647C23.9089 37.7581 22.9275 38.0188 21.9752 38.3468C21.8841 38.3762 21.7888 38.4099 21.6977 38.4435C21.4203 38.5402 21.1511 38.6453 20.8861 38.7505C20.8033 38.7799 20.7246 38.8177 20.646 38.8514C20.646 38.8514 20.6418 38.8514 20.6377 38.8514C20.5342 38.8934 20.4306 38.9355 20.3271 38.9817C20.1532 38.906 19.9793 38.8345 19.8012 38.7589C19.7888 38.7589 19.7805 38.7547 19.7723 38.7462C19.5031 38.6369 19.234 38.536 18.9565 38.4393C16.6501 37.6151 14.1698 37.1652 11.5859 37.1652C11.3043 37.1652 11.0269 37.1694 10.7495 37.182C10.4679 37.1694 10.1822 37.1652 9.90062 37.1652C6.33954 37.1652 2.97723 38.0146 0 39.5326C3.24224 37.4554 7.0559 36.2065 11.147 36.0846C11.3665 36.0762 11.5901 36.072 11.8095 36.072C14.4182 36.072 16.9234 36.5303 19.2464 37.3713C19.3913 37.4217 19.5362 37.4764 19.677 37.5353C19.7847 37.5731 19.8882 37.6151 19.9917 37.6572C20.1077 37.7034 20.2195 37.7497 20.3313 37.7959C20.6667 37.653 21.0062 37.5184 21.354 37.3923C22.236 37.0685 23.1511 36.7994 24.0828 36.5934C25.0352 36.3789 26.0166 36.2275 27.0145 36.1434C27.619 36.093 28.236 36.0678 28.853 36.0678C29.0766 36.0678 29.2961 36.0678 29.5155 36.0804C31.4534 36.1392 33.3292 36.4462 35.1097 36.9802C35.1097 36.9802 35.1111 36.9802 35.1139 36.9802C35.1139 36.9802 35.1221 36.9802 35.1263 36.9802C35.8012 37.1778 36.4638 37.4133 37.1097 37.6782C38.352 38.1828 39.5321 38.8009 40.6501 39.5157L40.646 39.5283Z" fill="#1F85C7"/>
<path d="M26.0287 6.01145V4.24121H25.3786V5.34708H24.1198V6.01145H26.0287Z" fill="#CF1920"/>
<path d="M27.2876 6.33102H25.3787V8.10126H26.0288V6.99538H27.2876V6.33102Z" fill="#CF1920"/>
<path d="M22.6665 6.33102C22.6665 6.33102 15.7928 16.7002 15.7928 26.6362C15.7928 32.687 19.2586 35.8658 19.2586 35.8658C19.2586 35.8658 17.2503 32.5734 17.2503 26.4344C17.2503 17.1543 22.6665 6.33102 22.6665 6.33102Z" fill="#77B52F"/>
<path d="M21.4822 12.4195C21.4822 12.4195 19.5278 20.5054 24.6872 27.7293C28.9853 33.7422 36.7866 35.975 36.7866 35.975C36.7866 35.975 30.1861 33.04 25.8176 27.0481C21.4491 21.0562 21.4781 12.4195 21.4781 12.4195H21.4822Z" fill="#77B52F"/>
<path d="M58.745 18.7855C59.333 18.7813 59.8051 18.9243 60.1653 19.2186C60.4345 19.4667 60.5752 19.8115 60.5835 20.253C60.5752 20.8585 60.3765 21.3 59.9873 21.5817C59.6022 21.8592 59.1218 22.0022 58.5504 22.0022H57.0721V21.8004C57.2875 21.7962 57.4241 21.7583 57.4862 21.6826C57.5359 21.6154 57.5566 21.4556 57.5525 21.2075V19.576C57.5566 19.3153 57.5359 19.1513 57.4862 19.084C57.4283 19.021 57.304 18.9873 57.1135 18.9831V18.7855H58.7533H58.745ZM58.2688 21.2159C58.2647 21.4135 58.2895 21.5523 58.3392 21.628C58.3889 21.7079 58.4924 21.7457 58.6539 21.7415C59.4034 21.7247 59.7802 21.2664 59.7844 20.3707C59.7761 19.4709 59.3951 19.0294 58.6415 19.0378C58.4345 19.0378 58.3268 19.0546 58.3102 19.084C58.2813 19.1135 58.2647 19.1976 58.2647 19.3321V21.2159H58.2688Z" fill="#494444"/>
<path d="M61.2379 19.5764C61.242 19.3157 61.2213 19.1517 61.1757 19.0844C61.1178 19.0129 60.9894 18.9751 60.7824 18.9835V18.7859H63.2875C63.2958 18.9499 63.3165 19.2274 63.3414 19.631L63.1426 19.6437C63.0971 19.3914 63.035 19.2316 62.9604 19.1643C62.9356 19.1265 62.8776 19.097 62.7948 19.0802C62.7078 19.055 62.5836 19.0424 62.418 19.0424H62.1571C62.066 19.0424 62.0122 19.0508 61.9915 19.0634C61.9666 19.0802 61.9542 19.1349 61.9542 19.2232V20.1861H62.4056C62.596 20.1903 62.7161 20.1693 62.7658 20.123C62.8155 20.0726 62.8528 19.9632 62.8693 19.7908H63.0722V20.8631H62.8693C62.8528 20.6823 62.8155 20.5687 62.7658 20.5267C62.7161 20.4888 62.596 20.472 62.4056 20.4762H61.9542V21.191C61.9501 21.4686 61.9915 21.6325 62.0826 21.6872C62.1695 21.7335 62.331 21.7545 62.5629 21.7503C62.6871 21.7503 62.7989 21.7377 62.9025 21.7166C63.0018 21.6998 63.0805 21.6578 63.1385 21.5989C63.2254 21.5022 63.3041 21.3382 63.3704 21.1069L63.5774 21.128C63.5608 21.2373 63.5319 21.3887 63.4946 21.5737C63.4573 21.7713 63.4283 21.9143 63.3993 21.9984H60.7327V21.7965C60.9604 21.7923 61.1054 21.7545 61.1675 21.6788C61.2172 21.6115 61.2379 21.4517 61.2337 21.1952V19.568L61.2379 19.5764Z" fill="#494444"/>
<path d="M34.2316 15.7497C34.2441 15.8422 34.2606 16.0272 34.2813 16.309C34.2979 16.5991 34.3186 16.8976 34.3434 17.2088L34.0702 17.2256C33.9791 16.7799 33.8631 16.4856 33.7306 16.351C33.5981 16.2038 33.2544 16.1324 32.712 16.1324H32.2565C32.0909 16.1324 31.9873 16.145 31.9418 16.1702C31.9004 16.208 31.8838 16.3132 31.888 16.4814V18.5207H32.6788C33.0598 18.5291 33.3 18.4829 33.3993 18.3946C33.4532 18.3399 33.4946 18.2558 33.5194 18.1465C33.5443 18.0414 33.565 17.9026 33.5815 17.7218H33.8673V19.7611H33.5815C33.5526 19.3869 33.4904 19.1556 33.3993 19.0673C33.3 18.9916 33.0598 18.958 32.6788 18.9622H31.888V20.539C31.8838 21.073 31.9501 21.3884 32.0909 21.4893C32.1778 21.5482 32.2979 21.5818 32.4594 21.586C32.5339 21.5944 32.6167 21.5944 32.7037 21.5944C32.7906 21.6071 32.8817 21.6113 32.9728 21.6113C33.2047 21.6155 33.42 21.5987 33.6147 21.5566C33.8051 21.5188 33.9501 21.4473 34.0453 21.3337C34.2068 21.1445 34.3641 20.8208 34.5174 20.3624L34.7906 20.4171C34.7078 20.9679 34.6043 21.4935 34.4801 21.9939H30.0039V21.7248C30.389 21.7122 30.6333 21.6407 30.7368 21.5019C30.8279 21.3674 30.8735 21.0478 30.8652 20.5474V17.1752C30.8693 16.6748 30.8321 16.351 30.7451 16.2122C30.6913 16.1366 30.6167 16.0819 30.5174 16.0483C30.4056 16.023 30.2648 16.0062 30.095 16.002V15.7413H34.2358L34.2316 15.7497Z" fill="#494444"/>
<path d="M35.0721 20.5895C35.1508 20.846 35.2957 21.0983 35.5111 21.3506C35.6229 21.4683 35.7429 21.565 35.8796 21.6449C36.0121 21.729 36.1529 21.7711 36.3019 21.7711C36.509 21.7711 36.6829 21.708 36.8154 21.586C36.9396 21.4683 37.0017 21.3211 37.0059 21.1361C37.0059 20.7451 36.7781 20.4507 36.3185 20.2573L36.0742 20.1648C35.7926 20.0555 35.5483 19.9083 35.333 19.7233C35.2295 19.6266 35.1425 19.5131 35.0763 19.3869C35.0059 19.265 34.9728 19.122 34.9728 18.9622C34.9728 18.5586 35.1135 18.2306 35.391 17.9825C35.6684 17.7302 36.0701 17.6041 36.5918 17.5957C36.7988 17.5999 36.9893 17.6251 37.1674 17.6713C37.3413 17.726 37.4738 17.7638 37.5607 17.7891C37.5897 18.0414 37.6353 18.3988 37.6974 18.8655L37.4117 18.9076C37.3371 18.63 37.2253 18.403 37.0721 18.2222C36.9065 18.0456 36.7036 17.9531 36.4593 17.9447C36.2771 17.9531 36.128 18.0077 36.0121 18.1171C35.8879 18.239 35.8299 18.3946 35.8299 18.5754C35.8299 18.7478 35.892 18.8907 36.0121 19.0085C36.128 19.1262 36.273 19.2145 36.451 19.2776L36.6788 19.3659C37.0142 19.4752 37.304 19.635 37.5442 19.8452C37.7761 20.0639 37.9003 20.3624 37.9127 20.7409C37.9086 21.1656 37.7512 21.4977 37.4448 21.7416C37.1342 21.9855 36.7243 22.1117 36.2108 22.1159C35.9044 22.1074 35.6518 22.0612 35.4489 21.9687C35.246 21.8888 35.1011 21.8215 35.0142 21.7669C34.9852 21.6828 34.952 21.5272 34.9148 21.2959C34.8775 21.0689 34.8361 20.8376 34.7864 20.6021L35.0721 20.5853V20.5895Z" fill="#494444"/>
<path d="M41.8176 19.0001C41.7141 18.5838 41.5526 18.2979 41.3372 18.1465C41.1219 18.0035 40.8735 17.9362 40.5919 17.9447C40.1199 17.9531 39.7596 18.1213 39.507 18.4534C39.2544 18.794 39.1302 19.2355 39.1302 19.7738C39.1344 20.3961 39.2793 20.8838 39.5609 21.2328C39.8341 21.5945 40.1903 21.7753 40.625 21.7753C40.9273 21.7753 41.1799 21.6786 41.3869 21.4851C41.5857 21.2959 41.7679 21.0142 41.9377 20.6484L42.2068 20.6652C42.1571 20.8922 42.1033 21.1193 42.0495 21.3506C41.9791 21.5945 41.9211 21.7837 41.8673 21.9182C41.7679 21.9435 41.5898 21.9813 41.3331 22.0318C41.0764 22.0864 40.799 22.1159 40.5008 22.1201C39.6561 22.1032 39.035 21.8762 38.6457 21.4347C38.2482 21.0058 38.0495 20.5012 38.0495 19.9251C38.0536 19.2187 38.3021 18.6511 38.7948 18.2306C39.2669 17.8143 39.8838 17.6041 40.6416 17.5957C40.9687 17.5999 41.2503 17.6251 41.4863 17.6713C41.7141 17.726 41.8714 17.7638 41.9625 17.7891C41.9874 18.1255 42.0288 18.5165 42.0826 18.9706L41.8176 19.0001Z" fill="#494444"/>
<path d="M44.5504 17.5957C45.2502 17.5999 45.805 17.8143 46.2108 18.2306C46.6125 18.6469 46.8195 19.1683 46.8237 19.7906C46.8113 20.5475 46.5794 21.1277 46.1239 21.523C45.685 21.9224 45.1591 22.1201 44.5462 22.1201C43.7885 22.1032 43.2171 21.8678 42.832 21.4136C42.4469 20.9721 42.2523 20.4844 42.2523 19.9546C42.2647 19.1514 42.5131 18.5586 43.0059 18.1633C43.4779 17.7849 43.9914 17.5957 44.5462 17.5957H44.5504ZM43.3413 19.7317C43.3413 20.3288 43.4614 20.8124 43.7015 21.1824C43.9251 21.5692 44.2315 21.7627 44.6166 21.7711C44.9231 21.7753 45.1881 21.6407 45.4075 21.359C45.627 21.0815 45.7429 20.6315 45.7471 20.0008C45.7471 19.4542 45.6394 18.9833 45.4282 18.5796C45.2088 18.1675 44.8899 17.9573 44.4717 17.9447C44.157 17.9531 43.8961 18.1044 43.685 18.403C43.4614 18.7183 43.3454 19.1599 43.3413 19.7317Z" fill="#494444"/>
<path d="M47.0349 22.0025V21.7334C47.3413 21.7292 47.5317 21.6745 47.6146 21.5778C47.6808 21.4853 47.7098 21.2709 47.7057 20.9345V18.7648C47.7098 18.4158 47.6808 18.1971 47.6146 18.113C47.5359 18.0289 47.3578 17.9827 47.0804 17.9785V17.7178H49.333V17.9785C49.0431 17.9827 48.8568 18.0289 48.774 18.113C48.6953 18.2013 48.658 18.42 48.6622 18.7648V20.9134C48.6539 21.2751 48.716 21.4937 48.8361 21.5652C48.9603 21.6325 49.1425 21.6661 49.3868 21.6577C49.7429 21.6661 49.9789 21.5946 50.1032 21.4559C50.157 21.3928 50.2191 21.3003 50.2854 21.1784C50.3392 21.0606 50.3972 20.905 50.4593 20.7074L50.7326 20.7368C50.6539 21.191 50.5752 21.6115 50.4965 21.9983H47.0349V22.0025Z" fill="#494444"/>
<path d="M53.0141 21.7376L53.1881 21.7207C53.3164 21.7039 53.3992 21.6619 53.4282 21.5946C53.4489 21.5273 53.4199 21.4012 53.3371 21.2077L53.1177 20.6275H51.8547C51.805 20.7704 51.7346 21.0017 51.6353 21.3255C51.598 21.4684 51.598 21.5652 51.627 21.6114C51.6643 21.6619 51.7471 21.6997 51.8713 21.7207L52.0866 21.7418V22.0025H50.4137V21.7418C50.5959 21.7249 50.7491 21.6787 50.8692 21.6072C50.981 21.5273 51.097 21.3381 51.217 21.0396L52.5835 17.6757L52.923 17.6042L54.3061 21.1573C54.4096 21.4096 54.5214 21.5652 54.6373 21.6282C54.7533 21.6955 54.9023 21.7334 55.0845 21.746V22.0067H53.0059V21.7418L53.0141 21.7376ZM51.9582 20.2575H52.9852L52.4841 18.8909H52.451L51.9582 20.2575Z" fill="#494444"/>
<path d="M69.0266 17.2215C68.9893 17.0743 68.9397 16.9314 68.8775 16.7884C68.8196 16.6412 68.7409 16.5109 68.6498 16.3932C68.5587 16.2628 68.4428 16.1661 68.3103 16.0988C68.1653 16.0273 67.9956 15.9895 67.8092 15.9895C67.5069 15.9979 67.2792 16.0946 67.1177 16.2922C66.9521 16.4773 66.8693 16.7127 66.8693 17.0029C66.8693 17.5159 67.2254 17.9279 67.9376 18.2349L68.1736 18.3526C68.5463 18.5124 68.8693 18.7311 69.1426 19.0128C69.4117 19.3071 69.5483 19.7024 69.5566 20.1985C69.5525 20.7746 69.3579 21.2413 68.9811 21.603C68.6084 21.9646 68.1032 22.1454 67.4697 22.1538C67.1094 22.1496 66.803 22.0949 66.5546 21.9898C66.302 21.8973 66.1281 21.83 66.0204 21.788C65.9417 21.46 65.8506 20.9596 65.7471 20.2953L66.0204 20.2028C66.0701 20.3331 66.1405 20.4803 66.2316 20.6443C66.3185 20.8251 66.4262 21.0017 66.5546 21.1657C66.6871 21.3296 66.8486 21.4726 67.0307 21.5903C67.2171 21.7123 67.42 21.7754 67.6477 21.7754C67.95 21.7754 68.186 21.666 68.3517 21.4474C68.5256 21.2498 68.6125 20.9975 68.6125 20.6863C68.6125 20.4172 68.5463 20.1817 68.4096 19.9757C68.2523 19.7612 67.9997 19.5678 67.6394 19.387L67.3455 19.2314C67.2005 19.1431 67.0473 19.0464 66.89 18.9455C66.7285 18.8362 66.5794 18.71 66.4386 18.5713C66.3061 18.4283 66.1943 18.2643 66.1115 18.0667C66.0204 17.8901 65.9707 17.684 65.9707 17.4528C65.9707 16.9272 66.1446 16.4899 66.4924 16.1451C66.8279 15.7961 67.304 15.6195 67.921 15.6153C68.1943 15.6153 68.4717 15.6615 68.7533 15.7498C68.9024 15.7919 69.0307 15.8339 69.1384 15.8718C69.1757 16.2039 69.2378 16.637 69.3206 17.1711L69.0307 17.2299L69.0266 17.2215Z" fill="#494444"/>
<path d="M72.0618 21.7376L72.2357 21.7207C72.3641 21.7039 72.4469 21.6619 72.4759 21.5946C72.4966 21.5273 72.4676 21.4012 72.3848 21.2077L72.1653 20.6275H70.9024C70.8527 20.7704 70.7823 21.0017 70.6829 21.3255C70.6457 21.4684 70.6457 21.5652 70.6746 21.6114C70.7119 21.6619 70.7947 21.6997 70.9189 21.7207L71.1343 21.7418V22.0025H69.4614V21.7418C69.6436 21.7249 69.7968 21.6787 69.9169 21.6072C70.0287 21.5273 70.1446 21.3381 70.2647 21.0396L71.6312 17.6757L71.9707 17.6042L73.3537 21.1573C73.4573 21.4096 73.5691 21.5652 73.685 21.6282C73.8009 21.6955 73.95 21.7334 74.1322 21.746V22.0067H72.0535V21.7418L72.0618 21.7376ZM71.0059 20.2575H72.0328L71.5318 18.8909H71.4987L71.0059 20.2575Z" fill="#494444"/>
<path d="M76.2853 17.7136V17.9743C76.0162 17.9785 75.8464 18.029 75.776 18.1215C75.7015 18.2098 75.6684 18.4284 75.6725 18.7774V19.9926C75.6642 21.0985 76.0286 21.6577 76.7574 21.6788C77.1549 21.6746 77.4406 21.5106 77.6187 21.1868C77.7843 20.8799 77.8713 20.4678 77.8713 19.9548V19.5217C77.863 18.9036 77.8381 18.5041 77.7967 18.3275C77.7719 18.1005 77.5524 17.9869 77.1383 17.9785V17.7178H78.923V17.9785C78.571 17.9827 78.3764 18.1005 78.3433 18.3275C78.3267 18.4284 78.3102 18.5672 78.2978 18.7522C78.2812 18.9372 78.2688 19.1937 78.2688 19.5217V20.0305C78.2729 20.7159 78.1156 21.2499 77.7884 21.6283C77.4862 21.9521 77.0431 22.1161 76.4592 22.1203C76.2315 22.1203 76.012 22.0908 75.8009 22.032C75.5814 21.9773 75.3826 21.8848 75.2046 21.7545C74.8733 21.498 74.7077 20.9892 74.7077 20.2323V18.7774C74.7118 18.4284 74.6829 18.2098 74.6166 18.1257C74.5421 18.0332 74.3599 17.9869 74.0742 17.9785V17.7178H76.2812L76.2853 17.7136ZM77.1135 15.813C77.1797 15.7121 77.2419 15.6574 77.3081 15.649C77.3619 15.6448 77.4282 15.6658 77.511 15.7205L77.6766 15.8214C77.8588 15.9265 77.8505 16.0611 77.6559 16.2251L76.3557 17.3982L76.1528 17.2847L77.1176 15.813H77.1135Z" fill="#494444"/>
<path d="M81.2005 17.7132C81.9831 17.7048 82.6125 17.8982 83.0929 18.2892C83.4531 18.6214 83.6353 19.0798 83.6477 19.6684C83.6353 20.4758 83.3703 21.0644 82.8486 21.4387C82.3351 21.8129 81.6933 21.9979 80.9314 21.9979H78.9604V21.7288C79.2461 21.7246 79.4324 21.6699 79.5111 21.5732C79.5773 21.4807 79.6063 21.2705 79.6022 20.9383V18.7602C79.6063 18.4112 79.5773 18.1925 79.5111 18.1084C79.4366 18.0243 79.2709 17.9781 79.0142 17.9739V17.7132H81.2005ZM80.567 20.9551C80.5587 21.22 80.5918 21.4008 80.6622 21.506C80.7285 21.6111 80.8693 21.6615 81.0846 21.6573C82.0825 21.6321 82.5836 21.0224 82.5918 19.8324C82.5794 18.634 82.0701 18.0412 81.068 18.0538C80.7947 18.0538 80.6457 18.0748 80.6291 18.1126C80.5918 18.1505 80.5711 18.2598 80.5711 18.4448V20.9551H80.567Z" fill="#494444"/>
<path d="M84.5255 18.769C84.5297 18.42 84.5048 18.2013 84.4469 18.113C84.3723 18.0163 84.1984 17.9701 83.921 17.9785V17.7178H87.2585C87.2709 17.9322 87.2957 18.3107 87.3288 18.8405L87.0597 18.8573C86.9976 18.5209 86.9148 18.3064 86.8195 18.2139C86.7823 18.1635 86.7119 18.1256 86.6001 18.1004C86.4841 18.0668 86.3185 18.05 86.099 18.05H85.7512C85.627 18.05 85.5566 18.0584 85.5317 18.0794C85.4986 18.1004 85.4821 18.1719 85.4821 18.2938V19.5763H86.0825C86.3351 19.5805 86.4966 19.5553 86.5587 19.4922C86.6249 19.4249 86.6705 19.2778 86.6953 19.0465H86.9645V20.4761H86.6953C86.6705 20.2365 86.6249 20.0851 86.5587 20.0262C86.4924 19.9758 86.3351 19.9547 86.0825 19.959H85.4821V20.9134C85.4738 21.2835 85.5359 21.5021 85.656 21.5778C85.7719 21.6409 85.9872 21.6703 86.2978 21.6619C86.4593 21.6619 86.6125 21.6451 86.7533 21.6157C86.8858 21.5904 86.9893 21.54 87.0638 21.4601C87.1798 21.3297 87.2833 21.1153 87.3703 20.8083L87.6477 20.8378C87.6228 20.9849 87.5856 21.1826 87.5359 21.4348C87.4862 21.6998 87.4448 21.889 87.4075 22.0025H83.8547V21.7334C84.1611 21.7292 84.3516 21.6745 84.4344 21.5778C84.5007 21.4853 84.5297 21.2709 84.5255 20.9345V18.769Z" fill="#494444"/>
<path d="M32.4262 22.9653C33.1136 22.9653 33.6394 23.0956 34.008 23.3521C34.4179 23.6296 34.6249 24.0796 34.6291 24.7103C34.6167 25.3116 34.4262 25.7699 34.0618 26.0895C33.7015 26.4175 33.2833 26.6109 32.8113 26.6655C32.6539 26.6782 32.5131 26.6824 32.3889 26.6824L31.7761 26.5142V27.7756C31.7719 28.276 31.8175 28.5956 31.9252 28.7301C32.0287 28.8647 32.2854 28.9404 32.6953 28.953V29.2137H29.9997V28.953C30.3351 28.9404 30.5504 28.8689 30.6498 28.7301C30.7367 28.5956 30.7782 28.276 30.7699 27.7756V24.4033C30.774 23.903 30.7367 23.5792 30.6498 23.4404C30.6084 23.3647 30.5339 23.3101 30.4303 23.2764C30.331 23.2512 30.2026 23.2344 30.037 23.2302V22.9695H32.4262V22.9653ZM31.7761 26.1399C31.9169 26.2072 32.1032 26.2451 32.3351 26.2535C32.4386 26.2535 32.5546 26.2324 32.6829 26.1862C32.8154 26.1441 32.9479 26.0643 33.068 25.9549C33.1964 25.8372 33.304 25.6816 33.3869 25.4798C33.4655 25.2822 33.5069 25.0257 33.5069 24.7145C33.4821 23.7768 33.0556 23.3143 32.2191 23.3269C32.0121 23.3269 31.8837 23.3437 31.8341 23.3816C31.7844 23.432 31.7637 23.5287 31.7719 23.6675V26.1357L31.7761 26.1399Z" fill="#494444"/>
<path d="M36.919 24.9288V25.1895C36.6498 25.1937 36.48 25.2442 36.4096 25.3367C36.3351 25.425 36.302 25.6436 36.3061 25.9926V27.2078C36.2978 28.3137 36.6622 28.873 37.391 28.894C37.7885 28.8898 38.0742 28.7258 38.2523 28.402C38.4179 28.0951 38.5049 27.683 38.5049 27.17V26.7369C38.4966 26.1188 38.4718 25.7193 38.4304 25.5427C38.4055 25.3157 38.186 25.2021 37.772 25.1937V24.933H39.5566V25.1937C39.2047 25.1979 39.0101 25.3157 38.9769 25.5427C38.9604 25.6436 38.9438 25.7824 38.9314 25.9674C38.9148 26.1524 38.9024 26.4089 38.9024 26.7369V27.2457C38.9065 27.9311 38.7492 28.4651 38.4221 28.8435C38.1198 29.1673 37.6767 29.3313 37.0929 29.3355C36.8651 29.3355 36.6457 29.3061 36.4345 29.2472C36.215 29.1925 36.0163 29.1 35.8382 28.9697C35.507 28.7132 35.3413 28.2044 35.3413 27.4475V25.9926C35.3455 25.6436 35.3165 25.425 35.2502 25.3409C35.1757 25.2484 34.9935 25.2021 34.7078 25.1937V24.933H36.9148L36.919 24.9288ZM37.7513 23.0282C37.8175 22.9273 37.8796 22.8726 37.9459 22.8642C37.9997 22.86 38.066 22.8811 38.1488 22.9357L38.3144 23.0366C38.4966 23.1418 38.4883 23.2763 38.2937 23.4403L36.9935 24.6134L36.7906 24.4999L37.7554 23.0282H37.7513Z" fill="#494444"/>
<path d="M40.2399 25.9761C40.2441 25.6313 40.2151 25.4168 40.1489 25.3285C40.0743 25.2444 39.9045 25.1982 39.6437 25.1897V24.929H41.946C42.3642 24.929 42.6954 25.0005 42.9356 25.1477C43.1799 25.3075 43.3041 25.564 43.3124 25.9172C43.3083 26.1947 43.2048 26.4049 43.0143 26.5521C42.8114 26.7035 42.6168 26.8044 42.4263 26.8465V26.8633C42.7451 26.9053 43.0143 27.0147 43.2337 27.1913C43.4491 27.3805 43.5609 27.6454 43.565 27.9818C43.565 28.2341 43.507 28.4359 43.3911 28.5873C43.2793 28.747 43.1302 28.8774 42.9397 28.9741C42.5464 29.1381 42.1281 29.218 41.6851 29.2138H39.6064V28.9447C39.888 28.9405 40.0702 28.8858 40.1489 28.7891C40.2151 28.6966 40.2441 28.4863 40.2399 28.1542V25.9718V25.9761ZM41.1633 26.7582H41.5153C41.7389 26.7666 41.9294 26.7077 42.095 26.5858C42.2482 26.4638 42.3269 26.262 42.3352 25.9803C42.331 25.728 42.2482 25.5472 42.0867 25.4294C41.9294 25.3201 41.7472 25.2654 41.5402 25.2654C41.3745 25.2654 41.271 25.2738 41.2296 25.2949C41.1799 25.3285 41.1551 25.4042 41.1633 25.5219V26.7624V26.7582ZM41.1633 28.1415C41.1633 28.4485 41.2172 28.6461 41.3207 28.7428C41.4242 28.8353 41.565 28.8816 41.7348 28.8732C41.9501 28.8732 42.1364 28.8017 42.2896 28.6545C42.4428 28.52 42.5215 28.3097 42.5298 28.0238C42.5257 27.679 42.418 27.4309 42.2192 27.2838C42.0081 27.1492 41.7555 27.0819 41.4615 27.0819H41.1633V28.1415Z" fill="#494444"/>
<path d="M43.8134 29.2138V28.9447C44.1198 28.9405 44.3103 28.8858 44.3931 28.7891C44.4594 28.6966 44.4883 28.4821 44.4842 28.1458V25.9761C44.4883 25.6271 44.4594 25.4084 44.3931 25.3243C44.3144 25.2402 44.1364 25.194 43.859 25.1897V24.929H46.1115V25.1897C45.8217 25.194 45.6353 25.2402 45.5525 25.3243C45.4739 25.4126 45.4366 25.6313 45.4407 25.9761V28.1247C45.4325 28.4863 45.4946 28.705 45.6146 28.7765C45.7389 28.8438 45.9211 28.8774 46.1654 28.869C46.5215 28.8774 46.7575 28.8059 46.8817 28.6672C46.9356 28.6041 46.9977 28.5116 47.0639 28.3896C47.1177 28.2719 47.1757 28.1163 47.2378 27.9187L47.5111 27.9481C47.4324 28.4022 47.3538 28.8227 47.2751 29.2096H43.8134V29.2138Z" fill="#494444"/>
<path d="M49.0349 28.1626C49.0266 28.4948 49.0639 28.7092 49.1384 28.7975C49.2088 28.8942 49.3827 28.9447 49.6602 28.9531V29.2138H47.4531V28.9531C47.7264 28.9489 47.9045 28.8942 47.9873 28.7975C48.0535 28.705 48.0825 28.4948 48.0784 28.1626V25.9803C48.0825 25.6313 48.0535 25.4126 47.9873 25.3243C47.9086 25.2402 47.7306 25.194 47.4531 25.1897V24.929H49.6602V25.1897C49.3827 25.194 49.2088 25.2402 49.1384 25.3243C49.0639 25.4126 49.0308 25.6313 49.0349 25.9803V28.1626Z" fill="#494444"/>
<path d="M53.6022 26.2155C53.4987 25.7992 53.3372 25.5133 53.1219 25.3619C52.9066 25.219 52.6581 25.1517 52.3765 25.1601C51.9045 25.1685 51.5442 25.3367 51.2916 25.6689C51.0391 26.0095 50.9148 26.451 50.9148 26.9892C50.919 27.6115 51.0639 28.0993 51.3455 28.4483C51.6188 28.8099 51.9749 28.9907 52.4097 28.9907C52.7119 28.9907 52.9645 28.894 53.1716 28.7006C53.3703 28.5114 53.5525 28.2296 53.7223 27.8638L53.9914 27.8806C53.9418 28.1077 53.8879 28.3347 53.8341 28.566C53.7637 28.8099 53.7057 28.9991 53.6519 29.1337C53.5525 29.1589 53.3745 29.1967 53.1177 29.2472C52.861 29.3019 52.5836 29.3313 52.2854 29.3355C51.4407 29.3187 50.8196 29.0916 50.4304 28.6501C50.0328 28.2212 49.8341 27.7166 49.8341 27.1406C49.8382 26.4342 50.0867 25.8665 50.5794 25.446C51.0515 25.0297 51.6685 24.8195 52.4262 24.8111C52.7533 24.8153 53.0349 24.8405 53.2709 24.8868C53.4987 24.9414 53.656 24.9793 53.7471 25.0045C53.772 25.3409 53.8134 25.7319 53.8672 26.1861L53.6022 26.2155Z" fill="#494444"/>
<path d="M56.4055 28.953L56.5794 28.9362C56.7078 28.9194 56.7906 28.8773 56.8196 28.81C56.8403 28.7427 56.8113 28.6166 56.7285 28.4232L56.509 27.8429H55.2461C55.1964 27.9859 55.126 28.2171 55.0266 28.5409C54.9893 28.6839 54.9893 28.7806 55.0183 28.8268C55.0556 28.8773 55.1384 28.9151 55.2626 28.9362L55.478 28.9572V29.2179H53.8051V28.9572C53.9873 28.9404 54.1405 28.8941 54.2606 28.8226C54.3724 28.7427 54.4883 28.5535 54.6084 28.255L55.9748 24.8911L56.3144 24.8196L57.6974 28.3727C57.8009 28.625 57.9127 28.7806 58.0287 28.8437C58.1446 28.9109 58.2937 28.9488 58.4759 28.9614V29.2221H56.3972V28.9572L56.4055 28.953ZM55.3496 27.4729H56.3765L55.8755 26.1063H55.8423L55.3496 27.4729Z" fill="#494444"/>
<path d="M62.1363 26.0014C62.7243 25.9972 63.1964 26.1402 63.5566 26.4345C63.8258 26.6826 63.9666 27.0274 63.9749 27.4689C63.9666 28.0744 63.7678 28.5159 63.3786 28.7976C62.9935 29.0751 62.5132 29.2181 61.9417 29.2181H60.4635V29.0163C60.6788 29.0121 60.8154 28.9742 60.8775 28.8985C60.9272 28.8313 60.9479 28.6715 60.9438 28.4234V26.7919C60.9479 26.5312 60.9272 26.3672 60.8775 26.2999C60.8196 26.2369 60.6954 26.2032 60.5049 26.199V26.0014H62.1446H62.1363ZM61.6602 28.4318C61.656 28.6294 61.6809 28.7682 61.7306 28.8439C61.7802 28.9238 61.8838 28.9616 62.0453 28.9574C62.7947 28.9406 63.1715 28.4823 63.1757 27.5866C63.1674 26.6868 62.7865 26.2453 62.0328 26.2537C61.8258 26.2537 61.7181 26.2705 61.7016 26.2999C61.6726 26.3294 61.656 26.4135 61.656 26.548V28.4318H61.6602Z" fill="#494444"/>
<path d="M65.8672 25.9129C66.3931 25.9171 66.8072 26.0769 67.1136 26.3881C67.4159 26.6992 67.5691 27.0903 67.5732 27.557C67.5649 28.1247 67.391 28.5578 67.0473 28.8563C66.7161 29.1549 66.3227 29.302 65.8631 29.302C65.2958 29.2894 64.8651 29.1128 64.5753 28.7722C64.2854 28.4401 64.1405 28.0742 64.1405 27.6748C64.1488 27.0735 64.3393 26.6278 64.7037 26.3334C65.0556 26.0475 65.4407 25.9087 65.8589 25.9087L65.8672 25.9129ZM64.9604 27.515C64.9604 27.9607 65.0515 28.3223 65.2295 28.604C65.3993 28.8942 65.6271 29.0413 65.9169 29.0456C66.1488 29.0498 66.3475 28.9488 66.509 28.7344C66.6747 28.5284 66.7616 28.1878 66.7658 27.7168C66.7658 27.3089 66.6871 26.9515 66.5256 26.6488C66.36 26.3418 66.1198 26.1821 65.8092 26.1736C65.5732 26.1778 65.3786 26.2914 65.2213 26.5184C65.0515 26.7539 64.9645 27.0861 64.9604 27.515Z" fill="#494444"/>
<path d="M75.0266 24.6261C74.8776 24.0879 74.6622 23.7136 74.3807 23.5034C74.0867 23.2974 73.7264 23.1964 73.2999 23.2006C72.5546 23.2133 71.9997 23.4908 71.6478 24.029C71.2917 24.5672 71.1136 25.2064 71.1136 25.9464C71.1136 26.8462 71.3124 27.5737 71.7099 28.1203C72.095 28.6838 72.625 28.9697 73.2999 28.9739C73.7803 28.9739 74.1695 28.8393 74.4635 28.5702C74.7451 28.3053 74.9977 27.9227 75.2254 27.4139L75.4821 27.4686C75.4283 27.7124 75.3579 27.99 75.2709 28.2969C75.184 28.6123 75.1012 28.8688 75.0225 29.0664C74.8776 29.1127 74.6415 29.1673 74.3061 29.2304C73.9666 29.3103 73.6312 29.3523 73.2958 29.3565C72.0991 29.3397 71.2378 28.9991 70.7037 28.339C70.1695 27.704 69.9086 26.9892 69.9128 26.1945C69.9169 25.1685 70.2565 24.3486 70.9231 23.7431C71.5649 23.1334 72.4097 22.8222 73.4573 22.818C73.8589 22.8264 74.2026 22.8558 74.4883 22.9147C74.7741 22.9778 74.9811 23.0282 75.1095 23.0661C75.1799 23.5581 75.2337 24.0668 75.2751 24.584L75.0184 24.6261H75.0266Z" fill="#494444"/>
<path d="M76.1156 25.9803C76.1198 25.6313 76.0949 25.4126 76.037 25.3243C75.9624 25.2276 75.7885 25.1813 75.5111 25.1897V24.929H78.8486C78.861 25.1435 78.8858 25.5219 78.9189 26.0517L78.6498 26.0686C78.5877 25.7322 78.5049 25.5177 78.4096 25.4252C78.3724 25.3748 78.302 25.3369 78.1902 25.3117C78.0742 25.2781 77.9086 25.2612 77.6891 25.2612H77.3413C77.2171 25.2612 77.1467 25.2696 77.1219 25.2907C77.0887 25.3117 77.0722 25.3832 77.0722 25.5051V26.7876H77.6726C77.9252 26.7918 78.0867 26.7666 78.1488 26.7035C78.215 26.6362 78.2606 26.489 78.2854 26.2578H78.5546V27.6874H78.2854C78.2606 27.4477 78.215 27.2964 78.1488 27.2375C78.0825 27.187 77.9252 27.166 77.6726 27.1702H77.0722V28.1247C77.0639 28.4948 77.126 28.7134 77.2461 28.7891C77.362 28.8522 77.5773 28.8816 77.8879 28.8732C78.0494 28.8732 78.2026 28.8564 78.3434 28.8269C78.4759 28.8017 78.5794 28.7513 78.6539 28.6714C78.7699 28.541 78.8734 28.3266 78.9604 28.0196L79.2378 28.049C79.2129 28.1962 79.1757 28.3938 79.126 28.6461C79.0763 28.911 79.0349 29.1003 78.9976 29.2138H75.4448V28.9447C75.7513 28.9405 75.9417 28.8858 76.0245 28.7891C76.0908 28.6966 76.1198 28.4821 76.1156 28.1458V25.9803Z" fill="#494444"/>
<path d="M81.6353 28.953L81.8093 28.9362C81.9376 28.9194 82.0204 28.8773 82.0494 28.81C82.0701 28.7427 82.0411 28.6166 81.9583 28.4232L81.7389 27.8429H80.4759C80.4262 27.9859 80.3559 28.2171 80.2565 28.5409C80.2192 28.6839 80.2192 28.7806 80.2482 28.8268C80.2855 28.8773 80.3683 28.9151 80.4925 28.9362L80.7078 28.9572V29.2179H79.0349V28.9572C79.2171 28.9404 79.3703 28.8941 79.4904 28.8226C79.6022 28.7427 79.7182 28.5535 79.8382 28.255L81.2047 24.8911L81.5442 24.8196L82.9273 28.3727C83.0308 28.625 83.1426 28.7806 83.2585 28.8437C83.3745 28.9109 83.5235 28.9488 83.7057 28.9614V29.2221H81.6271V28.9572L81.6353 28.953ZM80.5794 27.4729H81.6064L81.1053 26.1063H81.0722L80.5794 27.4729Z" fill="#494444"/>
<path d="M85.2834 28.1626C85.2751 28.4948 85.3123 28.7092 85.3869 28.7975C85.4573 28.8942 85.6353 28.9489 85.9128 28.9531V29.2138H83.7306V28.9531C84.0121 28.9489 84.1943 28.8942 84.273 28.7975C84.3434 28.705 84.3724 28.4948 84.3641 28.1626V25.9803C84.3724 25.6313 84.3434 25.4126 84.273 25.3243C84.1985 25.2402 84.0246 25.194 83.7554 25.1897V24.929H86.0453C86.4676 24.929 86.8155 25.0047 87.0846 25.1519C87.2171 25.2276 87.3289 25.3411 87.4117 25.4967C87.4987 25.6523 87.5401 25.8415 87.5401 26.0559C87.5359 26.3335 87.4531 26.5647 87.2958 26.754C87.1301 26.9348 86.9148 27.0693 86.6498 27.1576C86.8113 27.4351 87.0101 27.7505 87.2502 28.1079C87.4738 28.4359 87.6395 28.6545 87.7513 28.7555C87.8921 28.8774 88.0453 28.9699 88.2109 29.033L88.1778 29.2769H87.8092C87.42 29.2642 87.1302 29.2012 86.948 29.0918C86.7658 28.9909 86.6167 28.8522 86.5008 28.6798C86.389 28.5158 86.2813 28.3308 86.1778 28.1331C86.066 27.9397 85.9707 27.7715 85.8838 27.6286C85.8341 27.5234 85.7803 27.4562 85.7223 27.4267C85.6602 27.4015 85.5608 27.3889 85.4283 27.3889H85.2792V28.1626H85.2834ZM85.2834 27.0777H85.5774C85.7968 27.0861 85.9956 27.0399 86.1736 26.9474C86.302 26.8549 86.3972 26.7455 86.4552 26.611C86.5132 26.4764 86.5422 26.3251 86.5422 26.1611C86.538 25.8499 86.4511 25.6228 86.2854 25.4757C86.1198 25.3369 85.9169 25.2654 85.6767 25.2654C85.4987 25.2654 85.391 25.2738 85.3496 25.2949C85.2999 25.3285 85.2751 25.4126 85.2834 25.5472V27.0777Z" fill="#494444"/>
<path d="M90.4924 28.9528L90.6664 28.936C90.7947 28.9192 90.8775 28.8772 90.9065 28.8099C90.9272 28.7426 90.8982 28.6165 90.8154 28.423L90.596 27.8428H89.333C89.2833 27.9857 89.2129 28.217 89.1136 28.5408C89.0763 28.6837 89.0763 28.7804 89.1053 28.8267C89.1425 28.8772 89.2254 28.915 89.3496 28.936L89.5649 28.9571V29.2177H87.892V28.9571C88.0742 28.9402 88.2274 28.894 88.3475 28.8225C88.4593 28.7426 88.5753 28.5534 88.6953 28.2548L90.0618 24.891L90.4013 24.8195L91.7844 28.3726C91.8879 28.6249 91.9997 28.7804 92.1156 28.8435C92.2316 28.9108 92.3806 28.9486 92.5628 28.9613V29.222H90.4842V28.9571L90.4924 28.9528ZM89.4365 27.4727H90.4635L89.9624 26.1062H89.9293L89.4365 27.4727ZM90.5007 23.0282C90.5711 22.9273 90.6332 22.8726 90.6953 22.8642C90.7533 22.86 90.8196 22.8811 90.8982 22.9357L91.0639 23.0366C91.2502 23.1418 91.2419 23.2763 91.0473 23.4403L89.743 24.6134L89.5359 24.4999L90.509 23.0282H90.5007Z" fill="#494444"/>
</svg>
