<svg width="94" height="31" viewBox="0 0 94 31" fill="none" xmlns="http://www.w3.org/2000/svg">
<path d="M33.6912 5.05481C29.8588 5.05481 26.9556 7.77452 26.9556 11.4228C26.9556 15.0712 29.8765 17.7909 33.635 17.7909C35.8871 17.7909 37.6539 16.8082 38.7873 15.4288V15.1643L36.5559 13.238H36.2955C35.68 13.9172 34.7329 14.428 33.6705 14.428C32.0132 14.428 30.7111 13.1629 30.7111 11.4258C30.7111 9.68884 32.0132 8.42064 33.6705 8.42064C34.73 8.42064 35.68 8.93153 36.2955 9.6107H36.5559L38.7873 7.68437V7.41991C37.6154 5.98342 35.7747 5.05781 33.6883 5.05781" fill="#495960"/>
<path d="M40.6875 17.5595H49.9505V14.4821H44.369V12.7511H48.5744V9.86615H44.369V8.13214H49.9505V5.05481H40.6875V17.5595Z" fill="#495960"/>
<path d="M84.4841 4.30336L89.3375 2.45215V2.18769L88.0561 0.032959H87.7957L83.4956 2.71661V2.98107L84.2236 4.30336H84.4841Z" fill="#495960"/>
<path d="M91.2198 13.232L89.7489 9.8992L87.6093 5.05481H84.2237L79.0684 17.5595H82.9393L83.6288 15.6752H88.2248C88.5977 16.3484 88.9884 16.8683 89.4145 17.2139C89.9176 17.5985 90.5302 17.7909 91.3145 17.7909C91.9981 17.7909 92.6018 17.6436 93.0842 17.3822L91.424 13.6527C91.3589 13.5325 91.2937 13.3943 91.2227 13.232M84.5581 13.1749L85.9165 9.46345L87.2009 13.1749H84.5581Z" fill="#495960"/>
<path d="M63.4747 13.232L62.0038 9.8992L59.8641 5.05481H56.4786L51.3232 17.5595H55.1942L55.8837 15.6752H60.4797C60.8526 16.3484 61.2432 16.8683 61.6694 17.2139C62.1725 17.5985 62.7851 17.7909 63.5693 17.7909C64.253 17.7909 64.8567 17.6436 65.3391 17.3822L63.6788 13.6527C63.6137 13.5325 63.5486 13.3943 63.4776 13.232M56.813 13.1749L58.1713 9.46345L59.4557 13.1749H56.813Z" fill="#495960"/>
<path d="M75.179 12.655C76.5197 12.0389 77.4104 10.8669 77.4104 9.22904C77.4104 6.66861 75.6999 5.05481 72.5185 5.05481H66.7891V17.5595H70.4736V13.1749H70.7725C71.5922 13.1749 72.3528 14.8878 72.7997 15.6962C73.6372 17.1988 74.4185 17.7939 76.0935 17.7939C76.8393 17.7939 77.5999 17.5444 77.9727 17.2349L77.9846 17.2049L75.2589 12.7451C75.2323 12.7151 75.2086 12.685 75.182 12.658M72.3706 10.6715H70.4736V8.13214H72.3706C73.0571 8.13214 73.6549 8.59494 73.6549 9.43941C73.6549 10.2839 73.0601 10.6715 72.3706 10.6715Z" fill="#495960"/>
<path d="M30.9182 21.9952C30.9182 22.5392 30.7081 23.023 30.3559 23.3716C30.0067 23.7202 29.5125 23.9396 28.9443 23.9396C27.8108 23.9396 26.9556 23.0951 26.9556 21.9501C26.9556 20.8052 27.8345 19.9607 28.9473 19.9607C29.5924 19.9607 30.1665 20.2552 30.5217 20.697V20.7691L29.9623 21.2469H29.8913C29.6782 20.9765 29.3497 20.7931 28.968 20.7931C28.3702 20.7931 27.8759 21.271 27.8759 21.9562C27.8759 22.6413 28.3465 23.1071 28.9857 23.1071C29.2639 23.1071 29.5214 23.011 29.7049 22.8397C29.8499 22.7044 29.9505 22.5332 29.9831 22.3318H28.9709V21.6526H30.8295L30.9005 21.7127C30.9123 21.8029 30.9123 21.9141 30.9123 21.9952" fill="#495960"/>
<path d="M31.5249 21.9501C31.5249 20.8112 32.4186 19.9607 33.5995 19.9607C34.7803 19.9607 35.6681 20.8112 35.6681 21.9501C35.6681 23.0891 34.7714 23.9396 33.5995 23.9396C32.4275 23.9396 31.5249 23.0891 31.5249 21.9501ZM34.7418 21.9501C34.7418 21.271 34.2357 20.7931 33.5965 20.7931C32.9573 20.7931 32.4512 21.271 32.4512 21.9501C32.4512 22.6293 32.9573 23.1071 33.5965 23.1071C34.2357 23.1071 34.7418 22.6233 34.7418 21.9501Z" fill="#495960"/>
<path d="M39.918 20.1023L38.2163 23.8678H37.6807L35.979 20.1023L36.0204 20.0332H36.9497L37.947 22.4975L38.9828 20.0332H39.8766L39.918 20.1023Z" fill="#495960"/>
<path d="M41.513 20.7875V21.5839H42.9424V22.3051H41.513V23.1135H43.3716V23.8678H40.6045V20.0332H43.3597V20.7875H41.513Z" fill="#495960"/>
<path d="M47.4168 23.7957L47.3753 23.8678H46.4757L45.7151 22.4284H45.1854V23.8678H44.2798V20.0332H45.9075C46.8604 20.0332 47.3665 20.499 47.3665 21.2563C47.3665 21.7762 47.0764 22.1338 46.6236 22.3111L47.4197 23.7987L47.4168 23.7957ZM45.1883 21.7973H45.9134C46.2212 21.7973 46.4431 21.6079 46.4431 21.3014C46.4431 20.9949 46.2212 20.7875 45.9134 20.7875H45.1883V21.7973Z" fill="#495960"/>
<path d="M51.6697 20.0332V23.8859H51.1045L49.1897 21.6019V23.8678H48.2871V20.0332H48.8524L50.7612 22.3172V20.0332H51.6697Z" fill="#495960"/>
<path d="M52.5361 21.9501C52.5361 20.8112 53.4299 19.9607 54.6107 19.9607C55.7915 19.9607 56.6793 20.8112 56.6793 21.9501C56.6793 23.0891 55.7856 23.9396 54.6107 23.9396C53.4358 23.9396 52.5361 23.0891 52.5361 21.9501ZM55.756 21.9501C55.756 21.271 55.2499 20.7931 54.6107 20.7931C53.9714 20.7931 53.4654 21.271 53.4654 21.9501C53.4654 22.6293 53.9714 23.1071 54.6107 23.1071C55.2499 23.1071 55.756 22.6233 55.756 21.9501Z" fill="#495960"/>
<path d="M62.6791 21.9445C62.6791 23.1015 61.9126 23.8678 60.6933 23.8678H59.0449V20.0332H60.6933C61.9126 20.0332 62.6791 20.7995 62.6791 21.9445ZM61.7558 21.9505C61.7558 21.2263 61.3148 20.7875 60.6637 20.7875H59.9505V23.1135H60.6637C61.3148 23.1135 61.7558 22.6778 61.7558 21.9505Z" fill="#495960"/>
<path d="M63.3267 21.9501C63.3267 20.8112 64.2204 19.9607 65.4012 19.9607C66.582 19.9607 67.4699 20.8112 67.4699 21.9501C67.4699 23.0891 66.5761 23.9396 65.4012 23.9396C64.2263 23.9396 63.3267 23.0891 63.3267 21.9501ZM66.5436 21.9501C66.5436 21.271 66.0375 20.7931 65.3983 20.7931C64.759 20.7931 64.2529 21.271 64.2529 21.9501C64.2529 22.6293 64.759 23.1071 65.3983 23.1071C66.0375 23.1071 66.5436 22.6233 66.5436 21.9501Z" fill="#495960"/>
<path d="M70.7342 20.7875V21.5839H72.1636V22.3051H70.7342V23.1135H72.5957V23.8678H69.8286V20.0332H72.5838V20.7875H70.7342Z" fill="#495960"/>
<path d="M73.2197 23.2486V23.1765L73.6666 22.6506H73.7317C73.9685 22.927 74.4064 23.1584 74.7764 23.1584C75.1463 23.1584 75.3801 23.0052 75.3801 22.7798C75.3801 22.4552 75.0131 22.4131 74.5485 22.2659C74.0306 22.1006 73.4002 21.8061 73.4002 21.0908C73.4002 20.4237 73.9803 19.9579 74.8237 19.9579C75.4393 19.9579 75.969 20.2073 76.2413 20.5379V20.601L75.7944 21.1209H75.7323C75.5458 20.9256 75.2321 20.7032 74.8385 20.7032C74.5367 20.7032 74.3265 20.8324 74.3265 21.0458C74.3265 21.2982 74.6107 21.4004 74.9184 21.5056C75.5636 21.7129 76.3123 21.9143 76.3123 22.7738C76.3123 23.5221 75.6435 23.9368 74.8297 23.9368C74.1549 23.9368 73.5571 23.6663 73.2197 23.2456" fill="#495960"/>
<path d="M78.8697 23.8678H77.9582V20.7875H76.7744V20.0332H80.0564V20.7875H78.8697V23.8678Z" fill="#495960"/>
<path d="M83.9712 23.7959L83.9297 23.868H83.0123L82.7401 23.1949H81.142L80.8638 23.868H79.9819L79.9404 23.7959L81.6835 20.0304H82.2369L83.9741 23.7959H83.9712ZM82.4826 22.5578L81.9558 21.2535L81.4083 22.5578H82.4826Z" fill="#495960"/>
<path d="M88.2895 21.9445C88.2895 23.1015 87.523 23.8678 86.3037 23.8678H84.6523V20.0332H86.3037C87.523 20.0332 88.2895 20.7995 88.2895 21.9445ZM87.3661 21.9505C87.3661 21.2263 86.9252 20.7875 86.2741 20.7875H85.5609V23.1135H86.2741C86.9252 23.1135 87.3661 22.6778 87.3661 21.9505Z" fill="#495960"/>
<path d="M88.938 21.9501C88.938 20.8112 89.8317 19.9607 91.0125 19.9607C92.1934 19.9607 93.0812 20.8112 93.0812 21.9501C93.0812 23.0891 92.1874 23.9396 91.0125 23.9396C89.8377 23.9396 88.938 23.0891 88.938 21.9501ZM92.1578 21.9501C92.1578 21.271 91.6518 20.7931 91.0125 20.7931C90.3733 20.7931 89.8673 21.271 89.8673 21.9501C89.8673 22.6293 90.3733 23.1071 91.0125 23.1071C91.6518 23.1071 92.1578 22.6233 92.1578 21.9501Z" fill="#495960"/>
<path d="M19.9495 12.3753C20.0826 11.1822 20.9113 10.3648 21.8701 9.74571L22.0418 9.63452L18.8367 5.50236L18.7686 5.49034C18.3839 5.41521 18.0021 5.3491 17.6174 5.28599C16.4485 5.12671 15.6198 5.01852 14.8977 4.9464C14.6994 4.92837 14.5012 4.91334 14.3029 4.89831H14.2851L14.1046 4.88329H14.0572L14.0099 4.87728C13.5689 4.84723 13.125 4.82619 12.6811 4.81116H12.6782C12.6249 4.81116 12.5716 4.80816 12.5183 4.80515C12.4739 4.80515 12.4296 4.80515 12.3852 4.80515C10.7664 4.76909 9.33104 4.82619 8.313 4.8893C7.95787 4.91034 5.67615 5.14174 5.24999 5.19282L5.18192 5.20184C4.66402 5.27396 3.59864 5.44226 3.20799 5.50236L0.00292969 9.63452L0.174581 9.74571C1.13344 10.3648 1.96503 11.1852 2.09525 12.3753C2.22546 13.5443 1.60398 14.9026 1.16894 15.9665C0.585937 17.394 0.0414037 18.8034 0.0414037 20.3721C0.0414037 20.7087 0.0917139 21.0423 0.189375 21.3638C0.508993 22.4066 1.30211 23.2481 2.13667 23.9153C3.11032 24.6936 4.23787 25.3307 5.33286 25.9197C6.46928 26.5328 7.65008 27.1128 8.74803 27.792C9.48196 28.2458 10.4556 28.9129 10.8581 29.6973L11.0238 30.0158L11.1896 29.6973C11.595 28.9129 12.5686 28.2458 13.2996 27.792C14.3976 27.1128 15.5754 26.5328 16.7148 25.9197C17.8098 25.3307 18.9373 24.6906 19.911 23.9153C20.7455 23.2481 21.5387 22.4097 21.8583 21.3638C21.9559 21.0423 22.0063 20.7117 22.0063 20.3721C22.0063 18.8034 21.4617 17.394 20.8787 15.9665C20.4437 14.9026 19.8222 13.5443 19.9524 12.3753" fill="white"/>
<path fill-rule="evenodd" clip-rule="evenodd" d="M14.9424 0.787796L15.5905 0.889973L15.5964 0.493286L14.9424 0.787796Z" fill="#EFDCB8"/>
<path fill-rule="evenodd" clip-rule="evenodd" d="M9.16315 0.261353L9.15723 0.646019L9.53308 0.618972L9.16315 0.261353Z" fill="#EFDCB8"/>
<path fill-rule="evenodd" clip-rule="evenodd" d="M12.501 0.61624L12.8768 0.640282L12.8679 0.255615L12.501 0.61624Z" fill="#EFDCB8"/>
<mask id="mask0_100_555" style="mask-type:luminance" maskUnits="userSpaceOnUse" x="4" y="0" width="14" height="2">
<path d="M10.2992 0.0667725C10.2578 0.0667725 10.2252 0.102835 10.2252 0.141903V0.664809C9.82865 0.673824 9.42321 0.68885 9.01481 0.706881V0.192991C9.01481 0.171955 9.00593 0.150918 8.99113 0.135892C8.97633 0.120866 8.95562 0.114856 8.9349 0.114856C8.48803 0.141903 8.02932 0.18097 7.56765 0.226048C7.52917 0.229054 7.49959 0.262111 7.49959 0.301179V0.821079C7.08823 0.866157 6.73309 0.911236 6.3454 0.965329V0.442423C6.3454 0.421387 6.33653 0.40035 6.31877 0.382319C6.30101 0.367293 6.27734 0.361283 6.25662 0.364288C5.9666 0.412371 5.64994 0.478486 5.34808 0.541595C5.16755 0.580663 4.99887 0.616725 4.83314 0.646777C4.79763 0.652788 4.771 0.685845 4.771 0.721908V1.28989C4.771 1.28989 4.77396 1.31393 4.77987 1.32295C4.85386 1.4672 4.92784 1.61445 5.00478 1.7587C5.01662 1.77974 5.0403 1.79477 5.06398 1.79777C5.07581 1.79777 5.08765 1.79777 5.09949 1.79777C7.10006 1.47621 8.96746 1.31694 10.8082 1.31093C12.7378 1.30492 14.6318 1.54233 16.881 1.89995C16.8839 1.89995 16.8898 1.89995 16.8928 1.89995C16.9106 1.89995 16.9283 1.89394 16.9431 1.88192C16.9609 1.86689 16.9697 1.84585 16.9697 1.82482V1.7557C17.0289 1.6385 17.0911 1.52129 17.1503 1.40709L17.1947 1.32595C17.1947 1.32595 17.2035 1.30191 17.2035 1.28989V0.721908C17.2035 0.685845 17.1799 0.655793 17.1414 0.646777L16.9135 0.601699C16.5288 0.523564 16.1293 0.442423 15.7475 0.379314C15.7268 0.379314 15.7031 0.379314 15.6883 0.397345C15.6706 0.412371 15.6617 0.430402 15.6617 0.454444L15.6498 0.760975V0.944293C15.3391 0.90222 15.0402 0.869163 14.7265 0.836105C14.6436 0.82709 14.5608 0.818074 14.4749 0.809058V0.298173C14.4749 0.259106 14.4454 0.226048 14.4069 0.223043C13.96 0.177965 13.5013 0.141903 13.0426 0.111851C13.0219 0.111851 13.0012 0.117861 12.9834 0.132887C12.9686 0.147913 12.9597 0.165944 12.9597 0.189986V0.703876C12.5632 0.685845 12.1548 0.673824 11.7464 0.667814V0.141903C11.7464 0.0998297 11.7138 0.0667725 11.6694 0.0667725C11.48 0.0667725 11.2936 0.0667725 11.1042 0.0667725C10.8408 0.0667725 10.5715 0.0667725 10.3051 0.0697777" fill="white"/>
</mask>
<g mask="url(#mask0_100_555)">
<path d="M17.1947 0.0638428H4.76807V1.90904H17.1947V0.0638428Z" fill="url(#paint0_linear_100_555)"/>
</g>
<mask id="mask1_100_555" style="mask-type:luminance" maskUnits="userSpaceOnUse" x="5" y="1" width="12" height="2">
<path d="M5.0196 1.88419L5.55229 2.41611C5.55229 2.41611 8.30455 1.9473 10.9236 1.9473C13.5427 1.9473 16.4637 2.41611 16.4637 2.41611L16.8336 2.0645L16.9372 1.88419C16.9372 1.88419 14.5105 1.35828 11.1811 1.35828C7.85176 1.35828 5.01367 1.88419 5.01367 1.88419" fill="white"/>
</mask>
<g mask="url(#mask1_100_555)">
<path d="M16.9401 1.35828H5.01953V2.41611H16.9401V1.35828Z" fill="url(#paint1_linear_100_555)"/>
</g>
<mask id="mask2_100_555" style="mask-type:luminance" maskUnits="userSpaceOnUse" x="4" y="2" width="14" height="4">
<path d="M6.01048 2.3924L4.77344 5.38258C4.77344 5.38258 7.86604 5.01595 11.1954 4.94082C14.5159 4.86569 17.28 5.38559 17.2977 5.40362C17.2859 5.37958 15.9985 2.36836 15.9985 2.36836C15.9985 2.36836 13.7997 2.08287 11.1688 2.01675C10.9794 2.01074 10.7929 2.01074 10.6065 2.01074C8.18862 2.01074 6.01344 2.3924 6.01344 2.3924" fill="white"/>
</mask>
<g mask="url(#mask2_100_555)">
<path d="M17.2977 2.01099H4.77637V5.40386H17.2977V2.01099Z" fill="url(#paint2_linear_100_555)"/>
</g>
<path fill-rule="evenodd" clip-rule="evenodd" d="M11.8649 4.88013L10.0005 4.90417C10.0005 4.90417 10.036 4.09877 10.1189 3.83732C10.2017 3.57587 10.3734 3.28436 10.5805 3.15814C10.7877 3.03193 11.0304 2.96882 11.2553 3.05296C11.4802 3.13711 11.6311 3.25732 11.7761 3.50975C11.9212 3.76219 11.9744 3.9996 12.0218 4.28209C12.0662 4.56458 12.0218 4.89215 12.0218 4.89215L11.862 4.87712L11.8649 4.88013Z" fill="#EFDCB8"/>
<path fill-rule="evenodd" clip-rule="evenodd" d="M13.8001 2.54506C13.5012 2.56309 13.2348 2.75242 13.2555 2.99884C13.2762 3.24527 13.4183 4.38725 13.4183 4.38725L14.6169 4.4744L14.3979 2.90568C14.3979 2.90568 14.096 2.52703 13.7971 2.54506" fill="#EFDCB8"/>
<mask id="mask3_100_555" style="mask-type:luminance" maskUnits="userSpaceOnUse" x="1" y="5" width="20" height="24">
<path d="M3.75005 6.48202L1.46538 9.38505C2.33249 10.1183 2.97765 11.0379 3.11378 12.237C3.27063 13.6615 2.65211 15.0949 2.12237 16.3872C1.59855 17.6644 1.07178 18.9837 1.07178 20.3871C1.07178 20.6155 1.10729 20.8379 1.1724 21.0573C1.69326 22.7642 4.32715 24.1827 5.79798 24.9761C6.96103 25.6041 8.16256 26.1932 9.28418 26.8904C9.85239 27.242 10.5035 27.6417 11.0154 28.1405C11.5274 27.6417 12.1075 27.242 12.6786 26.8904C13.8032 26.1962 15.0018 25.6041 16.1648 24.9761C17.7363 24.1286 20.891 22.4847 20.891 20.3871C20.891 18.9837 20.3643 17.6674 19.8434 16.3872C19.3137 15.0949 18.707 13.6675 18.8668 12.243C19 11.0439 19.6481 10.1514 20.5152 9.42111L18.2098 6.47901C15.8926 6.05528 13.5605 5.85693 11.2226 5.85693C8.72485 5.85693 6.22709 6.07932 3.74709 6.48803" fill="white"/>
</mask>
<g mask="url(#mask3_100_555)">
<path d="M20.8974 5.84985H1.0752V28.1335H20.8974V5.84985Z" fill="url(#paint3_radial_100_555)"/>
</g>
<path fill-rule="evenodd" clip-rule="evenodd" d="M4.1706 10.3861L3.98415 10.9962H3.37451L3.86873 11.3748L3.67933 11.9849L4.1706 11.6062L4.66482 11.9849L4.47542 11.3748L4.96964 10.9962H4.36L4.1706 10.3861Z" fill="white"/>
<path fill-rule="evenodd" clip-rule="evenodd" d="M3.65794 14.545L3.46853 15.1581L2.85889 15.1551L3.35311 15.5338L3.16371 16.1468L3.65794 15.7652L4.1492 16.1468L3.95979 15.5338L4.45402 15.1551L3.84438 15.1581L3.65794 14.545Z" fill="white"/>
<path fill-rule="evenodd" clip-rule="evenodd" d="M2.9929 18.2748L2.80349 18.8848H2.19385L2.68808 19.2635L2.49867 19.8735L2.9929 19.4949L3.48416 19.8735L3.29475 19.2635L3.78898 18.8848H3.17934L2.9929 18.2748Z" fill="white"/>
<path fill-rule="evenodd" clip-rule="evenodd" d="M10.9446 24.7626L10.7581 25.3726H10.1455L10.6427 25.7483L10.4503 26.3613L10.9446 25.9827L11.4388 26.3613L11.2494 25.7483L11.7436 25.3726H11.134L10.9446 24.7626Z" fill="white"/>
<path fill-rule="evenodd" clip-rule="evenodd" d="M14.6291 23.2477L14.4427 23.8607H13.8301L14.3273 24.2364L14.1349 24.8495L14.6291 24.4678L15.1233 24.8495L14.9339 24.2364L15.4282 23.8607H14.8185L14.6291 23.2477Z" fill="white"/>
<path fill-rule="evenodd" clip-rule="evenodd" d="M7.2248 23.2477L7.4142 23.8607H8.02385L7.52962 24.2364L7.71902 24.8495L7.2248 24.4678L6.73058 24.8495L6.92294 24.2364L6.42871 23.8607H7.03835L7.2248 23.2477Z" fill="white"/>
<path fill-rule="evenodd" clip-rule="evenodd" d="M4.29465 21.2614L4.48406 21.8714H5.0937L4.59947 22.2501L4.78888 22.8601L4.29465 22.4815L3.80043 22.8601L3.9928 22.2501L3.49561 21.8714H4.10821L4.29465 21.2614Z" fill="white"/>
<mask id="mask4_100_555" style="mask-type:luminance" maskUnits="userSpaceOnUse" x="4" y="8" width="13" height="9">
<path d="M4.99413 16.0495H16.9709C17.0686 12.1637 15.068 8.17883 10.984 8.17883C6.89999 8.17883 4.89647 12.1637 4.99413 16.0495Z" fill="white"/>
</mask>
<g mask="url(#mask4_100_555)">
<path d="M17.0681 8.17883H4.896V16.0495H17.0681V8.17883Z" fill="url(#paint4_radial_100_555)"/>
</g>
<path fill-rule="evenodd" clip-rule="evenodd" d="M4.99316 15.6439H8.36394V15.7881H4.99316V15.7551C4.99316 15.716 4.99316 15.6799 4.99316 15.6409" fill="#CFA70E"/>
<path fill-rule="evenodd" clip-rule="evenodd" d="M5.01965 14.9831L8.37564 15.6503L8.34604 15.7915L5.00781 15.1274C5.01077 15.0793 5.01373 15.0312 5.01669 14.9801" fill="#CFA70E"/>
<path fill-rule="evenodd" clip-rule="evenodd" d="M5.09347 14.2917L8.39027 15.6561L8.33404 15.7913L5.07275 14.442C5.07867 14.3909 5.08459 14.3428 5.09347 14.2917Z" fill="#CFA70E"/>
<path fill-rule="evenodd" clip-rule="evenodd" d="M5.2264 13.5465L8.40483 15.6651L8.32492 15.7853L5.19385 13.6967C5.20569 13.6456 5.21456 13.5945 5.2264 13.5435" fill="#CFA70E"/>
<path fill-rule="evenodd" clip-rule="evenodd" d="M5.44872 12.7141L8.41702 15.6772L8.3164 15.7794L5.40137 12.8704C5.41616 12.8163 5.43392 12.7652 5.44872 12.7141Z" fill="#CFA70E"/>
<path fill-rule="evenodd" clip-rule="evenodd" d="M5.80048 11.78L8.42549 15.6928L8.30415 15.7739L5.73242 11.9393C5.75314 11.8852 5.77681 11.8341 5.80048 11.78Z" fill="#CFA70E"/>
<path fill-rule="evenodd" clip-rule="evenodd" d="M6.36325 10.7434L8.43189 15.705L8.29872 15.7621L6.26855 10.8937C6.30111 10.8426 6.3307 10.7945 6.36325 10.7434Z" fill="#CFA70E"/>
<path fill-rule="evenodd" clip-rule="evenodd" d="M7.21509 9.69409L8.43437 15.7255L8.29232 15.7526L7.09375 9.81731C7.13518 9.77523 7.17662 9.73316 7.21805 9.69409" fill="#CFA70E"/>
<path fill-rule="evenodd" clip-rule="evenodd" d="M8.4077 8.80774L8.43434 15.7408H8.28933L8.2627 8.88888C8.31005 8.86183 8.35739 8.83479 8.4077 8.80774Z" fill="#CFA70E"/>
<path fill-rule="evenodd" clip-rule="evenodd" d="M9.88221 8.28174L8.43209 15.7587L8.29004 15.7316L9.73128 8.3148C9.78159 8.30277 9.83486 8.29376 9.88517 8.28174" fill="#CFA70E"/>
<path fill-rule="evenodd" clip-rule="evenodd" d="M11.5129 8.20099L8.42322 15.7711L8.29004 15.717L11.3619 8.18896C11.4122 8.19197 11.4625 8.19498 11.5129 8.20099Z" fill="#CFA70E"/>
<path fill-rule="evenodd" clip-rule="evenodd" d="M13.1464 8.60935L8.41431 15.7858L8.29297 15.7046L13.0103 8.55225C13.0576 8.57028 13.102 8.59131 13.1464 8.60935Z" fill="#CFA70E"/>
<path fill-rule="evenodd" clip-rule="evenodd" d="M14.5812 9.53757L8.40192 15.7974L8.29834 15.6952L14.4717 9.44141C14.5072 9.47146 14.5457 9.50452 14.5812 9.53757Z" fill="#CFA70E"/>
<path fill-rule="evenodd" clip-rule="evenodd" d="M15.6761 10.8637L8.38707 15.8073L8.3042 15.687L15.5962 10.7405C15.6229 10.7795 15.6495 10.8216 15.6732 10.8637" fill="#CFA70E"/>
<path fill-rule="evenodd" clip-rule="evenodd" d="M16.4159 12.4109L8.37215 15.8098L8.31592 15.6746L16.3656 12.2727C16.3833 12.3178 16.3981 12.3629 16.4159 12.4079" fill="#CFA70E"/>
<path fill-rule="evenodd" clip-rule="evenodd" d="M16.8365 14.0612L8.35772 15.8132L8.32812 15.672L16.8128 13.9199C16.8217 13.968 16.8306 14.0161 16.8365 14.0612Z" fill="#CFA70E"/>
<path fill-rule="evenodd" clip-rule="evenodd" d="M16.972 15.7465L8.33643 15.8127V15.6684L16.9691 15.6023C16.9691 15.6504 16.9691 15.6985 16.9691 15.7465" fill="#CFA70E"/>
<path fill-rule="evenodd" clip-rule="evenodd" d="M8.36059 13.5354C9.58284 13.5354 10.5742 14.5241 10.5742 15.7442H6.1499C6.1499 14.5241 7.14131 13.5354 8.36356 13.5354" fill="#CFA70E"/>
<path fill-rule="evenodd" clip-rule="evenodd" d="M8.36073 13.7271C9.48235 13.7271 10.3909 14.6076 10.3909 15.6955H6.33057C6.33057 14.6076 7.23911 13.7271 8.36073 13.7271Z" fill="#FBCC00"/>
<mask id="mask5_100_555" style="mask-type:luminance" maskUnits="userSpaceOnUse" x="4" y="15" width="12" height="9">
<path d="M4.99173 15.7954C4.99173 16.0839 5.00653 16.3724 5.03021 16.6609C6.41818 16.706 8.20567 16.6218 8.2471 16.8893C8.25302 16.9254 8.32701 16.9073 8.38916 16.8893C8.45426 16.8713 8.51049 16.8502 8.47793 16.8893C7.84166 17.6045 8.62887 18.8367 9.43087 19.4708C11.9257 21.4362 11.0142 22.5421 8.99287 22.9839C9.59068 23.2123 10.2506 23.3385 10.9816 23.3385C13.287 23.3385 14.9236 22.0853 15.8972 20.2972C14.4027 19.6962 11.8724 19.3806 11.2864 18.0343C11.0911 17.5895 12.2838 16.7511 12.4702 16.3874C12.8312 15.6872 10.4903 15.8345 10.5525 15.7864L5.03021 15.7563C5.04796 15.7563 5.0302 15.7714 4.98877 15.7924" fill="white"/>
</mask>
<g mask="url(#mask5_100_555)">
<path d="M15.8992 15.687H4.99072V23.3383H15.8992V15.687Z" fill="url(#paint5_linear_100_555)"/>
</g>
<mask id="mask6_100_555" style="mask-type:luminance" maskUnits="userSpaceOnUse" x="4" y="15" width="8" height="9">
<path d="M4.99008 15.7586V15.7195C4.67934 17.3874 5.39255 19.9719 6.88114 21.5857C8.10339 22.9079 9.83466 23.4819 10.542 23.3768C10.5923 23.3707 10.6426 23.3737 10.684 23.3768C10.761 23.3828 10.8201 23.3888 10.8468 23.3347C12.3827 20.3956 6.78053 17.1049 10.761 15.7976C11.0332 15.7075 10.536 15.6804 9.71628 15.6804C8.34015 15.6804 6.05251 15.7586 4.99008 15.7586Z" fill="white"/>
</mask>
<g mask="url(#mask6_100_555)">
<path d="M12.3831 15.6804H4.67969V23.4789H12.3831V15.6804Z" fill="url(#paint6_linear_100_555)"/>
</g>
<mask id="mask7_100_555" style="mask-type:luminance" maskUnits="userSpaceOnUse" x="10" y="12" width="7" height="4">
<path d="M16.2483 12.2463C14.8337 12.2614 14.9639 13.9413 13.9873 14.0435C13.7564 14.0675 13.1793 13.8691 12.7798 13.806C12.2382 13.7189 11.1788 15.0231 10.9302 15.7324H16.9763C16.9733 14.5333 16.7662 13.3342 16.3607 12.2554C16.3282 12.2493 16.2927 12.2463 16.2571 12.2463H16.2512H16.2483Z" fill="white"/>
</mask>
<g mask="url(#mask7_100_555)">
<path d="M16.9729 12.2463H10.9268V15.7324H16.9729V12.2463Z" fill="url(#paint7_linear_100_555)"/>
</g>
<path fill-rule="evenodd" clip-rule="evenodd" d="M7.46442 20.093C6.66833 18.4491 7.07674 17.4304 8.18356 16.8053C7.68046 17.7099 8.41439 18.4732 9.47978 19.3177C8.72809 19.4739 8.02079 19.6993 7.49105 20.078L7.46442 20.093Z" fill="white"/>
<mask id="mask8_100_555" style="mask-type:luminance" maskUnits="userSpaceOnUse" x="10" y="15" width="7" height="7">
<path d="M11.3414 19.1402C12.3239 20.183 14.1262 20.3213 15.4491 21.0155C16.4464 19.621 16.9524 17.7608 16.9732 15.8916V15.8285L10.9478 15.7563C10.3973 16.6249 10.1014 17.8239 11.3414 19.1402Z" fill="white"/>
</mask>
<g mask="url(#mask8_100_555)">
<path d="M16.9729 15.7563H10.1011V21.0155H16.9729V15.7563Z" fill="url(#paint8_linear_100_555)"/>
</g>
<mask id="mask9_100_555" style="mask-type:luminance" maskUnits="userSpaceOnUse" x="13" y="14" width="4" height="2">
<path d="M15.6383 14.0964C15.1263 14.1565 14.78 15.001 13.7827 15.6261H16.97C16.9641 15.1783 16.9315 14.7335 16.8694 14.2948C16.5616 14.2527 16.0881 14.1355 15.7567 14.0964H15.6353H15.6383Z" fill="white"/>
</mask>
<g mask="url(#mask9_100_555)">
<path d="M16.97 14.0964H13.7827V15.6261H16.97V14.0964Z" fill="url(#paint9_linear_100_555)"/>
</g>
<path d="M8.73364 11.6604H7.93164V12.0871H8.73364V11.6604Z" fill="#FBCC00"/>
<path fill-rule="evenodd" clip-rule="evenodd" d="M11.2458 10.7318C11.7667 10.7228 12.2905 10.7379 12.7788 10.9182C13.1576 11.0564 13.3056 11.0504 13.6548 11.384L13.1221 11.7236C12.5864 11.1225 11.9176 11.0173 11.231 10.816C10.941 10.7318 10.9528 10.7379 11.2488 10.7318" fill="white"/>
<path fill-rule="evenodd" clip-rule="evenodd" d="M13.4185 11.3806C13.8476 11.4106 14.3418 11.083 14.546 11.041C14.6141 11.0289 14.7443 11.1552 14.6822 11.2153C14.6437 11.2543 14.4099 11.3415 14.3418 11.3775C14.2974 11.3986 14.6703 11.2032 14.7206 11.2093C14.8242 11.2273 14.8893 11.3986 14.8449 11.4346C14.8449 11.4346 14.5135 11.5248 14.4129 11.5699C14.3211 11.612 14.6881 11.4407 14.8449 11.4346C14.9012 11.4346 14.9633 11.6089 14.8834 11.66C14.6496 11.8133 14.3389 11.8193 14.0932 11.9305C14.1879 12.3062 14.4306 12.7389 14.4188 13.1266C14.3981 13.7336 14.0696 14.3016 13.9689 14.8726C13.9275 15.095 13.9571 15.1521 13.9098 14.8936C13.7795 14.1514 13.7292 12.8351 13.3859 12.3482C13.2468 12.2581 13.1403 12.1799 12.9687 12.1198C12.8769 12.0838 12.7408 12.0808 12.5662 12.0657C12.4715 12.0928 12.2466 12.1439 12.1519 12.1679C12.1814 11.9906 12.3205 11.4917 12.649 11.5338L13.4126 11.3806H13.4185Z" fill="white"/>
<path fill-rule="evenodd" clip-rule="evenodd" d="M13.5779 17.8633L13.5661 18.0586L13.8235 18.2509L13.8176 18.0286L13.5868 17.8542L13.5779 17.8663V17.8633ZM13.4595 21.3343L13.4536 21.5266L13.4743 21.5446H13.7377L13.4595 21.3343ZM13.4743 20.9466L13.4684 21.1449L13.9182 21.4815L13.9123 21.2772L13.4743 20.9466ZM13.4862 20.5589L13.4773 20.7603L13.9123 21.0788L13.9034 20.8715L13.4891 20.5589H13.4862ZM13.501 20.1713L13.4921 20.3696L13.8975 20.6791V20.4658L13.501 20.1713ZM13.5128 19.7836L13.5039 19.9909L13.8857 20.2734L13.8768 20.0601L13.5128 19.7836ZM13.5276 19.3989L13.5158 19.6033L13.8709 19.8737L13.865 19.6574L13.5276 19.4019V19.3989ZM13.5394 19.0113L13.5276 19.2216L13.8561 19.465L13.8502 19.2457L13.5394 19.0113ZM13.5513 18.6236L13.5394 18.8309L13.8443 19.0593L13.8383 18.84L13.5513 18.6236ZM13.5661 18.2359L13.5513 18.4463L13.8354 18.6566L13.8265 18.4343L13.5661 18.2359Z" fill="#B59877"/>
<mask id="mask10_100_555" style="mask-type:luminance" maskUnits="userSpaceOnUse" x="7" y="12" width="3" height="4">
<path d="M7.47607 12.943V15.6447H9.25173L9.24581 12.943H7.47607Z" fill="white"/>
</mask>
<g mask="url(#mask10_100_555)">
<path d="M9.25173 12.943H7.47607V15.6477H9.25173V12.943Z" fill="url(#paint10_linear_100_555)"/>
</g>
<mask id="mask11_100_555" style="mask-type:luminance" maskUnits="userSpaceOnUse" x="7" y="10" width="2" height="3">
<path d="M8.35536 10.9176C8.24882 10.9176 8.19259 11.0558 8.10973 11.161C8.02391 11.2722 7.93808 11.3413 7.93808 11.3413L7.9292 12.4473L7.96767 12.4983L7.944 12.889L8.69865 12.898L8.67497 12.4953L8.83183 12.4623L8.81406 12.0776L8.79631 11.4465C8.79631 11.4465 8.60987 11.2602 8.53292 11.146C8.46486 11.0438 8.50924 10.9176 8.35239 10.9176H8.35536Z" fill="white"/>
</mask>
<g mask="url(#mask11_100_555)">
<path d="M8.83475 10.9176H7.93213V12.898H8.83475V10.9176Z" fill="url(#paint11_linear_100_555)"/>
</g>
<path d="M8.70208 11.6776H7.97998V12.0172H8.70208V11.6776Z" fill="#FBCC00"/>
<path fill-rule="evenodd" clip-rule="evenodd" d="M8.13614 2.53944C8.43504 2.55747 8.70139 2.7468 8.68067 2.99323C8.65996 3.23966 8.5179 4.38163 8.5179 4.38163L7.31934 4.46879L7.53833 2.90007C7.53833 2.90007 7.84019 2.52141 8.13909 2.53944" fill="#EFDCB8"/>
<path d="M7.83139 3.04443C7.79291 3.46215 7.73964 3.74765 7.70117 4.16537C7.91425 4.14734 8.06222 4.14434 8.22499 4.12931C8.2753 3.7176 8.31673 3.41407 8.36704 3.00236C8.26346 2.76194 7.99119 2.795 7.82842 3.04443" fill="#77522F"/>
<path d="M14.2357 4.16559C14.1972 3.74787 14.144 3.46238 14.1055 3.04465C13.9427 2.79822 13.6705 2.76517 13.5669 3.00558C13.6172 3.4173 13.6586 3.72082 13.7089 4.13254C13.8717 4.14756 14.0197 4.15057 14.2328 4.1686" fill="#77522F"/>
<path d="M11.7669 4.84367L11.755 4.69041C11.7106 4.15548 11.6722 3.302 11.0122 3.302C10.3523 3.302 10.3315 4.18553 10.2901 4.71144L10.2842 4.83766L11.7669 4.84367Z" fill="#77522F"/>
<path d="M11.018 3.09536C11.8762 3.09536 11.897 4.13817 11.965 4.78729C11.965 4.78729 11.9739 4.82035 11.971 4.82035L11.9621 4.84139H12.1278L12.1219 4.7903C12.1071 4.616 12.0923 4.42667 12.0627 4.23434L12.4563 4.24335L12.5096 4.79931L12.5214 4.83838H12.6753V4.80532H12.6694L12.6161 4.24636C12.8529 4.25537 13.0896 4.26439 13.3264 4.2734L13.353 4.49579L13.6697 4.52584C13.8443 4.54387 14.0218 4.54688 14.1994 4.5619L14.6729 4.60097L14.6522 4.35454C14.957 4.37859 15.2618 4.40563 15.5637 4.43568L15.7117 5.0217L15.7294 5.11186L15.8833 5.11787L15.8596 4.96761L15.7294 4.45372L16.8392 4.58895L17.0819 5.14792L17.1056 5.20201L17.1233 5.24709C17.1233 5.24709 17.2269 5.26212 17.3127 5.27414V5.23507L16.1023 2.43722L16.5314 2.50334L16.9813 2.11867L17.3038 1.42447C17.3601 1.31027 17.3246 0.784359 17.3246 0.616067C17.076 0.564979 15.6969 0.282489 15.5874 0.297515L14.6048 0.745291V0.171297L12.8706 0.0330573V0.0390677L12.2728 0.607052L11.8911 0.598036V0H10.1539V0.598036L9.77505 0.610057L9.17134 0.0360625L7.43416 0.177307V0.745291L6.45458 0.303526C6.34212 0.2885 4.97191 0.564979 4.7174 0.616067C4.7174 0.784359 4.68485 1.30726 4.73812 1.42146C5.1406 2.25991 4.84762 1.95338 5.5638 2.49132L5.89821 2.44023L4.71444 5.25911C4.70557 5.28015 4.71444 5.27414 4.70557 5.27414V5.3132L4.88609 5.28616L4.90977 5.24709H4.90088L5.17611 4.60398H5.18499L6.29181 4.46874L6.14088 5.07279L6.13496 5.09382L6.12609 5.21103H6.2711L6.34213 4.92553L6.4605 4.45071C6.73573 4.42366 7.008 4.39662 7.28322 4.37558L7.26251 4.59797L7.73601 4.5589C7.91062 4.54387 8.08819 4.54087 8.26575 4.52284L8.58241 4.49278L8.60609 4.28542C8.87539 4.2704 9.14174 4.26138 9.40809 4.25237L9.36666 4.69113L9.34891 4.90149H9.50279L9.51167 4.83237V4.81434L9.56494 4.24936L9.97038 4.23734L9.99406 4.07806L8.62088 4.13817C8.64456 3.94884 8.66824 3.75951 8.69191 3.57018L10.1627 3.50407C9.99406 3.87071 9.95262 4.34553 9.91415 4.71817L9.89935 4.86843H10.0592L10.0651 4.7903C10.1302 4.15019 10.1716 3.09236 11.0121 3.09236M13.3204 2.6566C12.5836 2.61453 11.8467 2.59049 11.1068 2.59049V2.04354C11.9502 2.04354 12.7996 2.08261 13.6401 2.15173L13.6904 2.45225L13.6282 2.46727C13.5039 2.50033 13.4004 2.56945 13.3204 2.65961M13.1725 3.05329C13.1873 3.16448 13.1991 3.27868 13.2139 3.38987C12.989 3.37785 12.767 3.36884 12.5421 3.36283L12.4918 2.7738C12.7345 2.78282 12.9742 2.79484 13.2169 2.80686L13.1991 2.84593L13.1547 2.9451L13.1695 3.05329H13.1725ZM14.2201 4.36356C14.0455 4.34853 13.8679 4.34553 13.6933 4.3275L13.5335 4.31247L13.5128 4.15319C13.4655 3.77754 13.4152 3.40189 13.3708 3.02624L13.3648 2.97215L13.3856 2.92106C13.4418 2.78883 13.5424 2.68966 13.6815 2.65059C13.9183 2.58748 14.1461 2.73774 14.2734 2.93008L14.3 2.97215V3.02023C14.3385 3.39588 14.3977 3.76552 14.4332 4.14117L14.4539 4.37859L14.2201 4.35755V4.36356ZM14.5042 3.00821L14.4953 2.90904L14.4894 2.90002C14.7262 2.92106 14.9629 2.94811 15.1997 2.97515L15.3447 3.55215C15.0813 3.52511 14.8209 3.50106 14.5575 3.47702C14.5368 3.32075 14.519 3.16448 14.5042 3.00821ZM16.7682 4.42066H16.7415C16.0431 4.32449 15.3417 4.25237 14.6403 4.19827L14.6344 4.12915C14.6196 3.96387 14.5989 3.80159 14.5782 3.6363C15.2293 3.69039 15.8833 3.76252 16.5285 3.85868L16.7711 4.41765L16.7682 4.42066ZM16.4515 3.69039H16.4249L15.5104 3.57018L15.3654 2.99319L16.2 3.10438L16.4515 3.69039ZM16.126 2.93609H16.0994L14.3829 2.74676C14.2497 2.58147 14.0573 2.46427 13.8531 2.44323L13.8058 2.16074C14.5072 2.22085 15.2026 2.30199 15.9011 2.40416L16.1289 2.93308L16.126 2.93609ZM15.5903 0.50788L15.5815 0.880525C15.3743 0.850473 15.1642 0.823426 14.9629 0.784359L15.5874 0.50788H15.5903ZM12.8647 0.273474V0.628088C12.7463 0.622078 12.6309 0.619072 12.5125 0.613062L12.8647 0.273474ZM9.16838 0.273474L9.52646 0.619072C9.40809 0.625083 9.28675 0.628088 9.16838 0.634098V0.273474ZM6.45163 0.519901L7.09382 0.805395C6.88074 0.832442 6.6647 0.859489 6.45163 0.886536V0.519901ZM5.12876 1.77307C4.84466 1.22612 4.90681 1.42447 4.90681 0.772338C5.3596 0.682182 5.81239 0.601041 6.26518 0.528916V1.10592C6.71797 1.04281 7.17076 0.985708 7.62356 0.937624V0.351609C8.07635 0.306531 8.52914 0.270469 8.98193 0.240416V0.832442C9.43472 0.811406 9.88751 0.79638 10.3403 0.784359V0.189328C10.7931 0.183318 11.2429 0.183318 11.6987 0.189328V0.781354C12.1515 0.790369 12.6043 0.80239 13.0571 0.823426V0.234406C13.5099 0.261453 13.9626 0.300521 14.4154 0.342593V0.925603C14.8682 0.973687 15.321 1.03079 15.7738 1.0969V0.522906C16.2266 0.598036 16.6794 0.682182 17.1322 0.772338C17.1322 1.4425 17.1943 1.2111 16.9014 1.78209C14.8919 1.46354 12.8765 1.27721 10.8404 1.28322C8.92274 1.28923 7.02575 1.46354 5.13468 1.77007L5.12876 1.77307ZM5.6141 2.29297C5.44246 2.16375 5.33296 2.08561 5.16131 1.95639C9.23348 1.30426 12.7522 1.31628 16.8629 1.96841L16.4782 2.30499L14.4924 2.04053C11.5389 1.72799 8.71854 1.80613 5.6141 2.29598M6.09945 2.41018C6.80972 2.308 7.51997 2.22385 8.23023 2.16375L8.18289 2.44323C7.93134 2.42821 7.69754 2.56645 7.54365 2.76479L5.8775 2.9421L6.09945 2.41018ZM5.80351 3.11039H5.81239L6.6647 2.9992L6.51673 3.58822L5.55492 3.70842L5.80647 3.11039H5.80351ZM7.30394 4.12915L7.29506 4.21931C6.61144 4.2734 5.92781 4.34553 5.24714 4.43568L5.48093 3.87672H5.48981C6.11129 3.78956 6.73277 3.72044 7.35721 3.66335C7.33649 3.81962 7.31874 3.97288 7.30394 4.12915ZM7.43416 3.00821C7.41936 3.1735 7.39864 3.33878 7.37793 3.50407C7.14709 3.52511 6.9133 3.54614 6.68246 3.57018L6.83043 2.97816C7.03463 2.95412 7.23587 2.93308 7.44007 2.91505L7.43119 3.00821H7.43416ZM8.56761 3.02925C8.52026 3.4049 8.46995 3.78055 8.4226 4.1562L8.40485 4.31548L8.24504 4.3305C8.07043 4.34853 7.89287 4.35154 7.71826 4.36656L7.48446 4.3876L7.50518 4.15019C7.53773 3.77454 7.59988 3.4049 7.6354 3.02925V2.98116L7.66794 2.93909C7.7952 2.74676 8.02308 2.59349 8.25983 2.65961C8.39892 2.69567 8.49954 2.79785 8.55577 2.93008L8.57649 2.98116L8.57057 3.03526L8.56761 3.02925ZM8.62384 2.66562C8.54986 2.57847 8.4522 2.50935 8.33974 2.47328L8.39301 2.15173C9.24236 2.08261 10.0947 2.04655 10.9529 2.04354V2.59049C10.1775 2.59349 9.39921 2.61753 8.62384 2.66862M9.48207 3.37184C9.22756 3.38086 8.97306 3.39288 8.71855 3.4079C8.73334 3.2907 8.74814 3.17049 8.76294 3.05329L8.77773 2.9451L8.73334 2.84593L8.7215 2.81888C8.99081 2.80386 9.26308 2.78883 9.53239 2.77982L9.48207 3.37485V3.37184ZM9.64189 3.36583L9.69219 2.7708C10.5741 2.74075 11.456 2.73774 12.3379 2.7708L12.3882 3.35982L11.7904 3.3478C11.823 3.39889 11.8526 3.44998 11.8792 3.50708L13.2376 3.56417C13.2613 3.7535 13.2849 3.94283 13.3086 4.13216L12.042 4.08407L12.0538 4.15019C11.9562 3.53412 11.7312 2.9451 11.018 2.9451C10.6481 2.9451 10.4113 3.11039 10.2545 3.35682L9.64189 3.37485V3.36583Z" fill="#77522F"/>
<path d="M8.59458 13.908H8.17139V14.3227H8.59458V13.908Z" fill="#495960"/>
<path d="M9.17179 20.3295C9.25169 20.2544 9.25169 20.1762 9.17179 20.1011H8.82849V20.0831V19.8938C8.82849 19.8487 8.79297 19.8126 8.74858 19.8126H8.55918C8.51479 19.8126 8.47928 19.8487 8.47928 19.8938V20.1011H7.7039C8.22476 19.7736 8.864 19.5872 9.45589 19.464L9.78438 19.3949L9.521 19.1845C9.05341 18.8119 8.21293 18.1537 8.14782 17.5136C8.1271 17.3033 8.18629 17.1049 8.28691 16.9216L8.56215 16.4318L8.07383 16.7082C6.69178 17.4896 6.67699 18.7788 7.31327 20.1011H7.11202V19.9809H6.84567V20.1011H6.54382C6.46391 20.1642 6.46391 20.2394 6.54382 20.3295C7.38725 20.4708 8.26324 20.4708 9.16882 20.3295M8.15078 16.8435C7.64768 17.745 8.36386 18.4693 9.42629 19.3077C8.67756 19.464 7.99985 19.6864 7.47307 20.0651C6.71842 18.5234 7.04692 17.4656 8.15078 16.8435Z" fill="#495960"/>
<path d="M12.6611 11.7111C12.6225 11.7111 12.587 11.7382 12.584 11.7804C12.584 11.8225 12.6107 11.8587 12.6522 11.8617C12.6937 11.8647 12.7264 11.8346 12.7294 11.7924C12.7323 11.7502 12.7026 11.7141 12.6611 11.7111Z" fill="#495960"/>
<path d="M19.9495 12.3753C20.0827 11.1823 20.9113 10.3649 21.8702 9.74579L22.0418 9.6346L18.8367 5.50244L18.7687 5.48741C18.384 5.41529 18.0022 5.34617 17.6175 5.28306C16.4485 5.12378 15.6199 5.01559 14.8948 4.94347C14.6965 4.92544 14.4982 4.91041 14.2999 4.89538H14.2792L14.1017 4.88036H14.0543L14.007 4.87435C13.566 4.8443 13.1221 4.82326 12.6782 4.80823H12.6752C12.622 4.80823 12.5716 4.80222 12.5154 4.80222C12.471 4.80222 12.4266 4.80222 12.3822 4.80222C10.7605 4.76616 9.32811 4.82326 8.31007 4.88637C7.9579 4.90741 5.67322 5.13881 5.24706 5.18989L5.17899 5.19891C4.66109 5.27104 3.59571 5.43933 3.20506 5.49943L0 9.63159L0.171652 9.74278C1.13051 10.3619 1.9621 11.1823 2.09232 12.3723C2.22253 13.5414 1.60105 14.8997 1.16601 15.9636C0.583007 17.391 0.038474 18.8005 0.038474 20.3692C0.038474 20.7058 0.0887842 21.0394 0.186445 21.3609C0.506063 22.4037 1.29623 23.2452 2.13079 23.9123C3.10444 24.6907 4.23198 25.3278 5.32697 25.9198C6.46338 26.5329 7.6442 27.1129 8.74214 27.7921C9.47312 28.2458 10.4497 28.913 10.8522 29.6974L11.0179 30.0159L11.1837 29.6974C11.5891 28.916 12.5628 28.2458 13.2937 27.7921C14.3917 27.1129 15.5695 26.5329 16.7089 25.9198C17.8039 25.3308 18.9314 24.6907 19.9051 23.9123C20.7397 23.2452 21.5328 22.4067 21.8524 21.3609C21.9501 21.0394 22.0004 20.7088 22.0004 20.3692C22.0004 18.8005 21.4558 17.391 20.8728 15.9636C20.4378 14.8997 19.8163 13.5414 19.9465 12.3723M11.0209 29.6102C9.47904 26.617 0.224919 24.859 0.224919 20.3692C0.224919 15.8794 4.90081 12.5797 0.272271 9.58952L3.30864 5.66772C8.75399 4.73611 13.8915 4.7331 18.7332 5.66772L21.7695 9.58952C17.141 12.5827 21.8169 15.8794 21.8169 20.3692C21.8169 24.859 12.5628 26.617 11.0209 29.6102Z" fill="#495960"/>
<path fill-rule="evenodd" clip-rule="evenodd" d="M6.44629 0.895775L7.12104 0.808624L6.44629 0.511108V0.895775Z" fill="#EFDCB8"/>
<path d="M20.0152 16.3094C19.5033 15.0593 18.8877 13.6468 19.0416 12.2674C19.1659 11.1405 19.7696 10.2629 20.616 9.5477L20.7521 9.43351L18.3165 6.33814L18.2485 6.32612C13.4542 5.4456 8.57707 5.55078 3.77984 6.33514L3.70881 6.34716L1.27912 9.43351L1.41525 9.5477C2.26461 10.2629 2.86537 11.1405 2.98967 12.2674C3.14356 13.6468 2.52799 15.0593 2.01601 16.3094C1.48332 17.6077 0.956543 18.939 0.956543 20.3634C0.956543 20.6099 0.992061 20.8503 1.06309 21.0847C1.6017 22.8487 4.22079 24.2672 5.75969 25.0966C6.91979 25.7217 8.10355 26.3047 9.22222 26.9959C9.80522 27.3566 10.3882 27.7562 10.8825 28.2371L11.0127 28.3633L11.1429 28.2371C11.6342 27.7562 12.2172 27.3566 12.8031 26.9959C13.9247 26.3017 15.1085 25.7187 16.2657 25.0966C17.9348 24.1981 21.0688 22.5512 21.0688 20.3634C21.0688 18.936 20.542 17.6077 20.0093 16.3094M16.1798 24.9374C15.0197 25.5624 13.8241 26.1515 12.7055 26.8427C12.1402 27.1943 11.5246 27.612 11.0156 28.1109C10.5036 27.615 9.89105 27.1943 9.3258 26.8427C8.20713 26.1515 7.01153 25.5624 5.85144 24.9374C4.38652 24.15 1.76447 22.7345 1.24361 21.0336C1.17554 20.8172 1.14299 20.5918 1.14299 20.3664C1.14299 18.969 1.66681 17.6558 2.18767 16.3815C2.71148 15.0953 3.33 13.6678 3.17315 12.2494C3.03998 11.0563 2.39779 10.1397 1.53363 9.40946L2.82986 7.76261L6.0142 10.9511C3.99587 14.4041 4.47826 19.9397 7.51759 22.3559C8.52972 23.1613 9.72532 23.5399 11.0127 23.5399C13.2204 23.5399 14.8392 22.437 15.872 20.8232L18.571 23.5279C17.7246 24.1139 16.8191 24.5948 16.1798 24.9404M11.5602 8.23142C11.5779 8.23142 11.6016 8.23443 11.6253 8.24044C12.0751 8.28852 12.4953 8.38469 12.886 8.52593C12.886 8.52593 12.8889 8.52593 12.8919 8.52593C12.9274 8.53796 12.9688 8.55599 13.0132 8.57402C13.0192 8.57402 13.0251 8.58003 13.034 8.58303C13.0754 8.60106 13.1198 8.6191 13.1701 8.64013C13.1701 8.64013 13.1908 8.64915 13.1997 8.65215C13.2115 8.65816 13.2234 8.66417 13.2382 8.67018C13.247 8.67018 13.2559 8.6792 13.2707 8.68521C13.6702 8.86853 14.0372 9.09993 14.3716 9.3704C14.3775 9.3734 14.3805 9.37641 14.3805 9.37941C14.4338 9.42149 14.5137 9.4876 14.5995 9.56574C14.6202 9.58677 14.6439 9.6048 14.6646 9.62584C14.6735 9.63185 14.6794 9.64087 14.6853 9.64688C15.0257 9.96843 15.3275 10.3321 15.5909 10.7318C15.5909 10.7348 15.5939 10.7378 15.5968 10.7408L15.6087 10.7618C15.6383 10.8069 15.6678 10.855 15.6856 10.885C15.6738 10.867 15.6649 10.849 15.6531 10.8339L15.6856 10.885L15.6915 10.894C15.6915 10.894 15.6974 10.9061 15.7004 10.9091C15.9312 11.2847 16.1325 11.6844 16.2982 12.1051H16.2509C15.5554 12.1111 15.2062 12.4808 14.9517 12.8865C14.9428 12.8985 14.8747 13.0247 14.8244 13.1029C14.709 13.3042 14.6054 13.4995 14.4841 13.6498C14.5077 13.5506 14.5285 13.4515 14.5433 13.3523C14.5492 13.3072 14.5551 13.2621 14.5581 13.2141C14.5581 13.154 14.564 13.0488 14.564 13.0488C14.5521 12.6881 14.3805 12.3636 14.274 12.024C14.5018 11.9519 14.7327 11.9368 14.9576 11.7926C15.0937 11.7024 15.0908 11.4981 15.0049 11.3779C15.0049 11.3779 14.9931 11.2997 14.9783 11.2697C14.9694 11.2487 14.9457 11.2126 14.928 11.1855C14.8984 11.1465 14.8629 11.1134 14.8215 11.0894C14.7711 10.9692 14.635 10.876 14.5048 10.9C14.4012 10.9211 14.2769 10.9842 14.1793 11.0323C14.052 11.0924 13.9247 11.1525 13.7916 11.2006C13.7531 11.2156 13.7117 11.2276 13.6732 11.2366C13.5282 11.1314 13.3772 11.0383 13.2174 10.9571C13.1671 10.9301 13.1109 10.9061 13.0221 10.867C12.9748 10.846 12.9274 10.8279 12.8801 10.8099C12.5516 10.6897 12.2172 10.6266 11.8739 10.5995C11.7614 10.5905 11.6519 10.5875 11.4921 10.5845C11.43 10.5845 11.3708 10.5845 11.3086 10.5845C11.1843 10.5845 10.9535 10.5575 10.9298 10.7348C10.9061 10.9121 11.134 10.9421 11.2494 10.9782C11.2553 10.9782 11.2613 10.9782 11.2642 10.9812C11.3589 11.0052 11.2938 10.9902 11.6016 11.0743C11.936 11.1645 12.2556 11.2577 12.5457 11.4199C12.371 11.45 12.2468 11.5792 12.1698 11.7535L12.1373 11.8317C12.0988 11.9308 12.0721 12.042 12.0514 12.1352L12.0189 12.3335L12.2586 12.2674C12.3592 12.2404 12.4776 12.2253 12.5782 12.2013C12.6818 12.2133 12.809 12.2283 12.9008 12.2644H12.9037H12.9067C12.9866 12.2945 13.0665 12.3275 13.1464 12.3666C13.1523 12.3666 13.1583 12.3726 13.1642 12.3756C13.2648 12.4237 13.3033 12.4537 13.324 12.4808C13.324 12.4808 13.3299 12.4898 13.3329 12.4958C13.3329 12.4958 13.3329 12.4988 13.3329 12.5018C13.3329 12.5018 13.3329 12.5018 13.3329 12.5048C13.4572 12.7362 13.5282 13.1209 13.5696 13.4425C13.5696 13.4425 13.5696 13.4575 13.5696 13.4635C13.5696 13.4635 13.5696 13.4635 13.5696 13.4695C13.5755 13.5056 13.5814 13.5597 13.5874 13.6168C13.5933 13.6769 13.5992 13.731 13.6051 13.779L13.614 13.8572C13.5223 13.8331 13.4364 13.8091 13.3713 13.7911C13.3447 13.782 13.324 13.776 13.3062 13.773C13.3062 13.773 13.3062 13.773 13.3033 13.773H13.2885C13.2115 13.749 13.0517 13.7099 12.9659 13.6889C12.9126 13.6769 12.8594 13.6648 12.8061 13.6558C12.5575 13.6168 12.2911 13.779 12.1047 13.9233C12.0455 13.9684 11.9863 14.0195 11.9301 14.0705C11.7436 14.2509 11.6401 14.359 11.5335 14.4853C11.5128 14.5093 11.4921 14.5363 11.4714 14.5604C11.3708 14.6836 11.2849 14.7978 11.1902 14.933C11.1488 14.9901 11.1103 15.0502 11.0719 15.1103C11.0245 15.1885 10.9831 15.2606 10.9535 15.3177C10.9002 15.4139 10.8558 15.51 10.8174 15.6032H10.1367H9.98575H9.36723V12.8685H8.80198L8.78423 12.5469H8.95291V11.9429H8.8079V11.7505H8.92332V11.5522C8.92332 11.3598 8.79311 11.2186 8.62738 11.1465L8.63329 11.0864C8.63329 10.9632 8.55339 10.858 8.44093 10.8219C8.4143 10.8159 8.38766 10.8099 8.36398 10.8099C8.33735 10.8099 8.31367 10.8099 8.29591 10.8099C8.16866 10.8369 8.07396 10.9481 8.07396 11.0834L8.07988 11.1435C7.92007 11.2186 7.79282 11.3568 7.79282 11.5462V11.7445H7.90823V11.9368H7.76322V12.5409H7.94079L7.92303 12.8624H7.35778V15.5972H6.93162H6.1888H5.03167C5.03167 15.5611 5.03167 15.5221 5.03167 15.486C5.02871 15.4559 5.02575 15.4109 5.03167 15.3447C5.04055 15.1975 5.04647 15.1584 5.06126 14.9811C5.06126 14.9511 5.06719 14.924 5.06719 14.897C5.06719 14.8759 5.07015 14.8549 5.0731 14.8309C5.09678 14.5153 5.11158 14.4191 5.15893 14.1276C5.16781 14.0796 5.17372 14.0345 5.1826 13.9894C5.22107 13.767 5.25659 13.5987 5.2921 13.4425C5.30986 13.3583 5.32761 13.2922 5.34537 13.2261C5.34537 13.2171 5.35129 13.2111 5.35129 13.202C5.37201 13.1239 5.39568 13.0398 5.42528 12.9256C5.46079 12.7963 5.49926 12.6821 5.54069 12.5589C5.57028 12.4718 5.59988 12.3846 5.63243 12.3005C5.63243 12.2915 5.63835 12.2854 5.64131 12.2764C5.73305 12.021 5.74785 11.9819 5.86031 11.7445C5.86623 11.7325 5.87215 11.7205 5.87807 11.7054C6.00236 11.435 6.14146 11.1765 6.29239 10.9271C6.29239 10.9271 6.29239 10.9271 6.29239 10.9241C6.37821 10.7588 6.53802 10.5454 6.686 10.3531C6.70967 10.323 6.73334 10.293 6.75702 10.2599C6.76294 10.2509 6.76886 10.2419 6.77774 10.2359C6.94642 10.0165 7.08551 9.86325 7.27492 9.68594C7.27788 9.68294 7.28379 9.67693 7.28971 9.67392C7.53534 9.43651 7.80169 9.22615 8.0858 9.03982C8.09172 9.03682 8.09763 9.03081 8.10355 9.0278C8.29296 8.89858 8.21009 8.96169 8.43501 8.83247C8.47052 8.81143 8.49716 8.79941 8.52083 8.78739C8.81974 8.63112 9.13935 8.5049 9.47968 8.40873C9.4856 8.40873 9.49449 8.40573 9.49745 8.40272C9.65726 8.35464 9.78747 8.3306 9.91177 8.30655C10.2551 8.24044 10.6191 8.20438 10.9979 8.20438C11.0127 8.20438 11.0363 8.20438 11.0659 8.20438C11.1399 8.20438 11.208 8.20738 11.2968 8.21339C11.3382 8.21339 11.3678 8.21339 11.3737 8.21339C11.424 8.2164 11.4803 8.2194 11.5454 8.22541M5.04351 15.7595H5.04942H5.0879H5.1974H5.19148C6.85172 15.7595 9.0121 15.7595 10.7434 15.7595C10.548 15.8196 10.3764 15.8887 10.2255 15.9578L10.1811 15.9788C10.1337 16.0029 10.0893 16.0239 10.0479 16.048C9.99759 16.078 9.95023 16.1051 9.90584 16.1351C9.45897 16.4326 9.28141 16.7933 9.27845 17.205C9.27845 17.3883 9.30805 17.5836 9.36723 17.788L9.38499 17.8541V17.8601C9.40867 17.9322 9.43529 18.0044 9.46193 18.0795C9.55367 18.3229 9.66613 18.5573 9.78155 18.7887C9.86738 18.957 9.9532 19.1223 10.039 19.2876C10.4208 20.0118 10.844 20.7691 11.0127 21.5805C11.1133 22.0614 11.1192 22.5512 10.9535 23.023V23.0321C10.9357 23.0832 10.915 23.1342 10.8943 23.1853C10.8765 23.2244 10.8588 23.2635 10.841 23.3025H10.8351C10.6871 23.2995 10.5392 23.2875 10.3912 23.2725C9.59807 23.1883 8.82566 22.9359 8.14499 22.5031C5.94614 21.1117 4.97248 18.2598 5.04942 15.7625V15.7535L5.04351 15.7595ZM8.01477 13.2651V13.0217H8.25745V13.2651H8.50012V13.0217H8.74279V13.2651H8.98547V13.0217H9.22814V13.5506H7.52942V13.0217H7.7721V13.2651H8.01477ZM8.37286 11.2456C8.59778 11.2456 8.78126 11.3839 8.78126 11.5522V11.5943H7.96446V11.5522C7.96446 11.3839 8.14795 11.2456 8.37286 11.2456ZM8.24561 11.0894C8.24561 11.0203 8.30183 10.9662 8.3699 10.9662C8.43797 10.9662 8.4942 11.0233 8.4942 11.0894V11.1014C8.45277 11.0924 8.4143 11.0894 8.37582 11.0894C8.33439 11.0894 8.29 11.0924 8.24857 11.1014V11.0864L8.24561 11.0894ZM8.65993 11.7505V11.9429H8.46165V11.7505H8.65993ZM8.29296 11.9429H8.08876V11.7505H8.29296V11.9429ZM8.81381 12.3906H7.93783V12.0991H8.81381V12.3906ZM8.66289 12.8655H8.09468L8.11243 12.5439H8.63921L8.65993 12.8655H8.66289ZM9.22814 14.4612H7.52942V13.7159H9.22814V14.4612ZM9.22814 14.6235V15.5852H8.59778V15.0593C8.59778 14.915 8.50011 14.7858 8.3699 14.7858C8.23969 14.7858 8.14203 14.918 8.14203 15.0593V15.5852H7.52942V14.6235H9.22814ZM11.0127 23.3085C11.5276 22.2026 11.134 21.0907 10.6072 20.0329C10.3054 19.4258 9.95615 18.8338 9.71348 18.2778C9.55367 17.9142 9.38499 17.4454 9.4501 17.0337C9.49745 16.7392 9.67205 16.4627 9.92065 16.3064C10.1337 16.1712 10.335 16.072 10.5717 15.9849L10.5954 15.9758L10.6871 15.9428C10.0745 17.1118 10.3024 18.2297 11.2553 19.2365C11.7969 19.8105 12.5664 20.117 13.3654 20.3845L13.321 21.6707H14.0431V21.5415C14.0342 21.2259 14.0254 20.9104 14.0165 20.5948C14.49 20.7481 14.9517 20.9104 15.366 21.1238C14.3746 22.44 12.9245 23.3085 11.0127 23.3085ZM13.9987 18.2027L14.2355 18.4491L14.3272 18.362L14.0638 18.0885C14.2562 18.1907 14.419 18.3289 14.5581 18.5092L14.5669 18.5453L14.561 18.5874L14.5078 19.1433L14.2355 18.8548L14.2059 18.8338L14.1941 18.7887C14.1378 18.5723 14.0905 18.386 14.0017 18.2027M14.0846 18.8819L13.9691 19.1463C13.9603 18.8999 13.9543 18.6565 13.9484 18.4101C14.0017 18.5483 14.0372 18.6956 14.0786 18.8578L14.0846 18.8668V18.8819ZM14.2266 18.0374L14.4782 18.1186L14.5166 17.9983L14.2148 17.8992C14.3568 17.9052 14.4959 17.9292 14.6261 17.9713L14.6528 17.9863L14.6676 18.0134L14.9665 18.5453L14.6972 18.4882L14.6942 18.4822C14.561 18.2989 14.4071 18.1516 14.2266 18.0374ZM14.709 17.8541L14.6912 17.8601L14.6764 17.8541C14.5226 17.803 14.3627 17.776 14.2 17.773L14.5403 17.7128L14.5196 17.5896L14.1171 17.6588C14.2355 17.5866 14.3657 17.5265 14.4722 17.4845L14.5048 17.4694L14.5521 17.4754L15.1352 17.5686L14.709 17.8571V17.8541ZM14.6232 16.7061L14.4752 16.7662L14.6409 16.643L14.6232 16.7031V16.7061ZM14.5817 16.8594L14.4574 17.3312V17.3522L14.4367 17.3612C14.268 17.4274 14.0668 17.5265 13.9011 17.6558L14.2976 17.199L14.2029 17.1148L13.8567 17.5145C13.907 17.3673 13.9751 17.226 14.0638 17.0908L14.0816 17.0637L14.1082 17.0517L14.5877 16.8564L14.5817 16.8594ZM13.466 21.1418L13.4749 20.9495L13.9129 21.28L13.9188 21.4814L13.469 21.1448L13.466 21.1418ZM13.7383 21.5445H13.4779L13.4572 21.5295L13.4631 21.3371L13.7413 21.5445H13.7383ZM13.8241 18.4431L13.83 18.6445L13.5578 18.4401L13.5637 18.2478L13.8241 18.4431ZM13.5726 18.0554L13.5785 17.8781L13.5874 17.8661L13.8182 18.0404L13.8241 18.2418L13.5755 18.0554H13.5726ZM13.836 18.8488L13.8419 19.0502L13.5459 18.8278L13.5519 18.6354L13.836 18.8518V18.8488ZM13.8478 19.2545L13.8537 19.4589L13.5311 19.2155L13.5371 19.0231L13.8478 19.2575V19.2545ZM13.8626 19.6602L13.8685 19.8646L13.5193 19.6001L13.5252 19.4078L13.8626 19.6632V19.6602ZM13.8774 20.0659L13.8833 20.2673L13.5075 19.9848L13.5134 19.7925L13.8774 20.0659ZM13.8892 20.4716L13.8952 20.673L13.4927 20.3695L13.4986 20.1771L13.8892 20.4716ZM13.9011 20.8743L13.907 21.0757L13.4808 20.7541L13.4867 20.5618L13.9011 20.8743ZM13.9484 17.0307C13.8685 17.1539 13.8064 17.2801 13.7561 17.4093V16.9495H13.6288V17.5085C13.5726 17.3342 13.4956 17.1689 13.392 17.0126L13.3861 16.9796L13.6643 16.4416L13.9514 16.9976V17.0156L13.9484 17.0307ZM13.4956 17.4995L13.1523 17.1449L13.0606 17.232L13.5134 17.7008H13.5104C13.3358 17.5506 13.105 17.4364 12.9156 17.3612L12.8949 17.3312L12.7676 16.8443L13.2352 17.0367L13.2648 17.0517L13.2825 17.0757C13.3743 17.211 13.4424 17.3522 13.4956 17.4995ZM12.7262 16.6911L12.7114 16.634L12.8653 16.7482L12.7262 16.6911ZM12.8031 17.4754L12.8386 17.4694L12.8712 17.4784L13.2263 17.6527L12.8741 17.5926L12.8534 17.7159L13.1938 17.776C13.034 17.782 12.8742 17.809 12.7232 17.8571H12.7055H12.6877L12.2556 17.5626L12.8061 17.4754H12.8031ZM12.7232 18.0134L12.741 17.9893L12.7646 17.9743C12.9008 17.9322 13.0428 17.9082 13.1849 17.8992L12.8682 18.0044L12.9097 18.1246L13.1642 18.0374C12.9925 18.1486 12.8446 18.2898 12.7143 18.4581L12.7025 18.4732L12.6936 18.4882L12.4214 18.5453L12.7203 18.0134H12.7232ZM12.8386 18.5152C12.9688 18.35 13.1139 18.2177 13.2855 18.1186L13.0547 18.35L13.1435 18.4401L13.4335 18.1486C13.3151 18.356 13.253 18.5573 13.1908 18.8037L13.179 18.8308L13.1583 18.8518L12.886 19.1403L12.8327 18.5844V18.5453L12.8386 18.5122V18.5152ZM13.3181 18.8128C13.3536 18.6775 13.3861 18.5543 13.4335 18.4371L13.4098 19.1163L13.3092 18.8789V18.8518L13.3181 18.8097V18.8128ZM14.0135 20.4296C14.0017 20.099 13.9928 19.7714 13.981 19.4438L14.0934 19.1854L14.0875 19.546H14.2118L14.2177 19.2034L14.3391 19.528L14.4574 19.4829L14.3272 19.1373L14.5699 19.3928L14.6616 19.3056L14.6202 19.2635L14.6557 18.8909L14.7504 19.2515L14.8718 19.2185L14.7771 18.8668L14.9842 19.1644L15.0878 19.0922L14.857 18.7617L15.1736 18.966L15.2417 18.8608L14.9457 18.6685L15.0464 18.6895L15.0819 18.7527L15.1559 18.7106L15.292 18.7376L15.3186 18.6144L15.2831 18.6084L15.3601 18.5363L15.0553 18.2177L15.4281 18.4371L15.4932 18.3289L15.0819 18.0885L15.5406 18.1907L15.5672 18.0675L15.1914 17.9833L15.5791 17.9683V17.8421L15.144 17.8571L15.5583 17.7219L15.5199 17.6017L15.1085 17.7369L15.3186 17.5956L15.4725 17.4905L15.4015 17.3853L15.2861 17.4634L14.9783 17.4153L15.3778 17.3703L15.363 17.244L14.9102 17.2951L15.3186 17.1178L15.2683 17.0006L14.857 17.1809L15.1973 16.8864L15.1144 16.7903L14.7771 17.0818L15.0168 16.6941L14.9102 16.628L14.9043 16.637L14.8866 16.5949L14.7652 16.646L14.783 16.5799L14.7386 16.5679L14.8215 16.5078L14.7475 16.4056L14.3539 16.6971L14.6439 16.3154L14.5433 16.2403L14.2266 16.655L14.4012 16.1712L14.2828 16.1291L14.1349 16.5378L14.1733 16.1051L14.049 16.093L14.0076 16.5709L13.9129 16.096L13.7886 16.1201L13.8804 16.5889L13.7324 16.3004L13.7886 16.1922L13.6762 16.1351L13.6614 16.1622V16.1531L13.5459 16.2102L13.5903 16.3004L13.4512 16.5709L13.543 16.1021L13.4187 16.078L13.324 16.5528L13.2825 16.075L13.1583 16.087L13.1967 16.5198L13.0517 16.1111L12.9333 16.1531L13.1079 16.64L12.7913 16.2253L12.6907 16.3034L12.9807 16.6821L12.5871 16.3906L12.5131 16.4927L12.6167 16.5679L12.5634 16.5829L12.5782 16.634L12.448 16.5799L12.4243 16.64L12.3326 16.6971L12.5753 17.0848L12.2379 16.7933L12.155 16.8894L12.4953 17.1839L12.084 17.0036L12.0337 17.1208L12.4421 17.2981L11.9893 17.247L11.9745 17.3733L12.374 17.4183L12.0988 17.4604L11.9893 17.3883L11.9183 17.4935L12.0278 17.5686L12.0337 17.5987L12.0662 17.5926L12.2823 17.7399L11.8709 17.6047L11.8324 17.7249L12.2467 17.8601L11.8147 17.8451L11.8088 17.9713L12.1964 17.9863L11.8206 18.0705L11.8472 18.1937L12.3059 18.0915L11.8975 18.3319L11.9597 18.4401L12.3326 18.2207L12.0278 18.5393L12.1017 18.6114L12.0662 18.6174L12.0929 18.7406L12.226 18.7136L12.3 18.7557L12.3355 18.6925L12.4362 18.6715L12.1402 18.8638L12.2083 18.969L12.5249 18.7647L12.2941 19.0952L12.3977 19.1674L12.6048 18.8699L12.5131 19.2215L12.6344 19.2545L12.7291 18.8939L12.7676 19.2665L12.7262 19.3086L12.8179 19.3958L13.0606 19.1403L12.9304 19.4859L13.0488 19.531L13.1731 19.2064V19.552H13.3033V19.1914L13.398 19.4228L13.3713 20.2312C12.6048 19.9728 11.8768 19.6783 11.3678 19.1373C10.2047 17.9052 10.4001 16.7722 10.8825 15.9217V15.9157V15.9097V15.9037V15.8977V15.8917V15.8857L10.9032 15.8496V15.8436L10.9239 15.8075V15.8045L10.9416 15.7745V15.7685H11.2258L16.9463 15.8346C16.9374 17.7219 16.4314 19.6001 15.4281 21.0036C14.9842 20.7691 14.4841 20.5978 13.981 20.4356M14.999 18.3439L15.2476 18.6024L15.1322 18.5783L14.999 18.3409V18.3439ZM14.6735 17.0126L14.7297 16.7993L14.8303 16.7572L14.6705 17.0126H14.6735ZM12.6818 17.0126L12.5101 16.7392L12.6196 16.7842L12.6788 17.0126H12.6818ZM12.3947 18.3439L12.2616 18.5814L12.1461 18.6054L12.3947 18.3469V18.3439ZM16.9818 15.6272H13.8034C14.8718 14.9541 15.1914 14.0345 15.7714 14.1036C16.1029 14.1427 16.5705 14.2599 16.8782 14.2989C16.9404 14.7317 16.973 15.1735 16.9818 15.6152V15.6272ZM16.7806 14.1246C16.6267 14.1006 16.4758 14.0675 16.3219 14.0375C16.1473 14.0044 15.9668 13.9684 15.7862 13.9443C15.7182 13.9353 15.6501 13.9383 15.582 13.9503C15.2595 14.0104 14.9842 14.332 14.7711 14.5634C14.4426 14.918 14.1319 15.2275 13.7146 15.489L13.466 15.6242L11.0038 15.5942C11.3234 14.8729 12.2882 13.7249 12.7972 13.8061C13.0458 13.8451 13.3773 13.9503 13.6466 14.0164C13.6762 14.311 13.7028 14.6085 13.7531 14.894C13.7709 14.9961 13.7649 15.2035 13.9395 15.1975C14.1112 15.1915 14.0934 14.9841 14.1112 14.8789C14.1674 14.5574 14.2888 14.2539 14.3923 13.9443C15.0168 13.5296 15.0404 12.2674 16.2538 12.2524C16.2893 12.2524 16.3278 12.2524 16.3633 12.2614C16.5853 12.8534 16.748 13.4845 16.8516 14.1336L16.7776 14.1216L16.7806 14.1246ZM12.6788 11.5732L13.4039 11.423C13.833 11.453 14.3361 11.0954 14.5403 11.0563C14.5847 11.0473 14.6557 11.0954 14.6794 11.1435L14.2503 11.3478L14.3036 11.462L14.7682 11.2396C14.8215 11.2817 14.854 11.3659 14.8481 11.4109L14.3509 11.5311L14.3775 11.6544L14.9043 11.5311C14.9162 11.5792 14.9132 11.6363 14.8747 11.6634C14.6409 11.8136 14.3331 11.8226 14.0875 11.9308C14.1822 12.3065 14.4249 12.7362 14.4131 13.1239C14.4131 13.166 14.4071 13.205 14.4042 13.2441L14.1319 12.6731L14.0165 12.7272L14.3687 13.4605C14.342 13.5957 14.3065 13.7279 14.2621 13.8632L13.9839 12.9105L13.8626 12.9466L14.1911 14.0705C14.0994 14.338 14.0017 14.6025 13.9573 14.8669C13.9188 15.0893 13.9573 15.1374 13.9099 14.8819C13.7797 14.1427 13.7709 12.8354 13.4305 12.3516C13.2914 12.2614 13.1346 12.1863 12.9629 12.1262C12.8712 12.0901 12.741 12.0631 12.5664 12.051C12.4717 12.0751 12.2971 12.1142 12.2024 12.1412C12.232 11.9639 12.3444 11.5432 12.6759 11.5852M11.2997 10.8219C11.0127 10.7378 11.0245 10.7468 11.3175 10.7408C11.8354 10.7318 12.3415 10.7768 12.8298 10.9571C13.0399 11.0323 13.247 11.1345 13.4483 11.2667H13.4157H13.395L12.8031 11.3899C12.3503 11.0774 11.8324 10.9812 11.3027 10.8249M18.7812 23.3747L16.0111 20.5978C18.0561 17.1268 17.5412 11.5251 14.4486 9.12097C13.4512 8.34562 12.2793 7.97598 11.0186 7.97598C8.81086 7.97598 7.18613 9.09392 6.15329 10.7257L2.99263 7.56126L3.81535 6.51846C8.59482 5.7371 13.4453 5.63493 18.2189 6.50944L20.5006 9.40946C19.6364 10.1397 18.9913 11.0563 18.8611 12.2494C18.7042 13.6678 19.3227 15.0953 19.8466 16.3815C20.3674 17.6558 20.8912 18.969 20.8912 20.3664C20.8912 21.5295 19.9176 22.5512 18.7841 23.3777" fill="#495960"/>
<path d="M27.4433 30.2048C27.2806 30.1297 27.1533 30.0245 27.0557 29.8893V29.8562L27.2599 29.6429H27.2924C27.3723 29.745 27.47 29.8292 27.5884 29.8923C27.7067 29.9554 27.8222 29.9854 27.9346 29.9854C28.0707 29.9854 28.1802 29.9554 28.2602 29.8983C28.3401 29.8412 28.3785 29.7661 28.3785 29.6729C28.3785 29.5858 28.3371 29.5136 28.2927 29.4686C28.269 29.4475 28.2335 29.4235 28.1891 29.4024C28.1447 29.3814 28.1033 29.3664 28.0707 29.3544C28.0352 29.3423 27.9849 29.3243 27.9228 29.3033C27.8577 29.2822 27.8074 29.2642 27.7659 29.2522C27.6831 29.2221 27.615 29.1921 27.5588 29.165C27.5025 29.138 27.4404 29.0989 27.3753 29.0508C27.2421 28.9517 27.1681 28.8014 27.1681 28.6181C27.1681 28.4348 27.2391 28.2815 27.3842 28.1643C27.5262 28.0471 27.7127 27.99 27.9435 27.99C28.2809 27.99 28.562 28.1252 28.7189 28.3326V28.3626L28.5176 28.576H28.491C28.3401 28.3987 28.1595 28.3085 27.9494 28.3115C27.834 28.3115 27.7393 28.3356 27.6653 28.3897C27.5913 28.4438 27.5528 28.5099 27.5528 28.597C27.5528 28.6571 27.5736 28.7082 27.615 28.7533C27.6564 28.7984 27.7008 28.8314 27.7452 28.8525C27.7896 28.8735 27.8577 28.9006 27.9465 28.9306C27.9613 28.9366 28.0027 28.9487 28.0707 28.9697C28.1388 28.9937 28.1832 29.0088 28.2039 29.0178C28.2217 29.0268 28.2631 29.0418 28.3223 29.0659C28.3815 29.0899 28.4229 29.1109 28.4466 29.129C28.4673 29.147 28.5028 29.171 28.5472 29.1981C28.636 29.2582 28.6597 29.3123 28.71 29.3874C28.7573 29.4655 28.7721 29.5557 28.7721 29.6699C28.7721 29.8682 28.6952 30.0275 28.5443 30.1417C28.3933 30.2589 28.198 30.319 27.9612 30.319C27.7778 30.319 27.6061 30.28 27.4463 30.2048H27.4433Z" fill="#545453"/>
<path d="M30.8641 28.3532H29.704V28.9903H30.6184V29.2998H29.704V29.949H30.867V30.2735H29.3281V28.0256H30.8641V28.3502V28.3532Z" fill="#545453"/>
<path d="M31.5664 29.985C31.3415 29.7626 31.229 29.4862 31.229 29.1526C31.229 28.819 31.3415 28.5425 31.5693 28.3202C31.7943 28.0978 32.0724 27.9866 32.4039 27.9866C32.7768 27.9866 33.1053 28.1519 33.3213 28.4283V28.4614L33.0846 28.6537H33.0579C32.8952 28.4404 32.6791 28.3322 32.4068 28.3322C32.1819 28.3322 31.9925 28.4103 31.8416 28.5636C31.6877 28.7168 31.6108 28.9122 31.6108 29.1526C31.6108 29.393 31.6877 29.5853 31.8416 29.7416C31.9925 29.8979 32.1819 29.976 32.4068 29.976C32.6791 29.976 32.8952 29.8678 33.0579 29.6545H33.0846L33.3213 29.8498V29.8799C33.1082 30.1563 32.7797 30.3246 32.398 30.3246C32.0695 30.3246 31.7913 30.2134 31.5693 29.991L31.5664 29.985Z" fill="#545453"/>
<path d="M35.5461 30.247L35.5283 30.2771H35.1584L34.6849 29.3725H34.2084V30.2771H33.8296V28.0292H34.7204C35.2472 28.0292 35.5342 28.2816 35.5342 28.7114C35.5342 29.0209 35.3626 29.2373 35.0637 29.3304L35.549 30.247H35.5461ZM34.2054 28.3537V29.093H34.75C34.8713 29.093 34.969 29.06 35.04 28.9908C35.111 28.9217 35.1465 28.8346 35.1465 28.7234C35.1465 28.6122 35.111 28.525 35.04 28.4559C34.969 28.3898 34.8713 28.3567 34.75 28.3567H34.2054V28.3537Z" fill="#545453"/>
<path d="M37.6536 28.3532H36.4935V28.9903H37.408V29.2998H36.4935V29.949H37.6566V30.2735H36.1177V28.0256H37.6536V28.3502V28.3532Z" fill="#545453"/>
<path d="M39.074 28.3537V30.2771H38.6952V28.3537H37.979V28.0292H39.7872V28.3537H39.071H39.074Z" fill="#545453"/>
<path d="M40.9914 28.0292L42.0124 30.247L41.9947 30.2771H41.6159L41.4176 29.8203H40.3374L40.1362 30.2771H39.7722L39.7544 30.247L40.7843 28.0292H40.9885H40.9914ZM40.4647 29.5318H41.2963L40.8849 28.5761L40.4647 29.5318Z" fill="#545453"/>
<path d="M44.1789 30.247L44.1611 30.2771H43.7912L43.3177 29.3725H42.8412V30.2771H42.4624V28.0292H43.3532C43.88 28.0292 44.167 28.2816 44.167 28.7114C44.167 29.0209 43.9954 29.2373 43.6965 29.3304L44.1818 30.247H44.1789ZM42.8412 28.3537V29.093H43.3857C43.5071 29.093 43.6047 29.06 43.6758 28.9908C43.7468 28.9217 43.7823 28.8346 43.7823 28.7234C43.7823 28.6122 43.7468 28.525 43.6758 28.4559C43.6047 28.3898 43.5071 28.3567 43.3857 28.3567H42.8412V28.3537Z" fill="#545453"/>
<path d="M44.7529 28.0292H45.1317V30.2771H44.7529V28.0292Z" fill="#545453"/>
<path d="M46.8191 28.0292L47.8401 30.247L47.8223 30.2771H47.4435L47.2452 29.8203H46.165L45.9638 30.2771H45.5998L45.582 30.247L46.6119 28.0292H46.8161H46.8191ZM46.2923 29.5318H47.1239L46.7125 28.5761L46.2923 29.5318Z" fill="#545453"/>
<path d="M50.0208 28.0286C50.37 28.0286 50.6512 28.1308 50.8613 28.3352C51.0714 28.5395 51.1779 28.81 51.1779 29.1466C51.1779 29.4832 51.0743 29.7596 50.8613 29.964C50.6512 30.1714 50.37 30.2735 50.0208 30.2735H49.1182V28.0256H50.0208V28.0286ZM50.0149 29.952C50.2516 29.952 50.441 29.8798 50.5831 29.7326C50.7251 29.5883 50.7962 29.393 50.7962 29.1526C50.7962 28.9122 50.7251 28.7168 50.5831 28.5726C50.441 28.4283 50.2516 28.3532 50.0149 28.3532H49.497V29.952H50.0149Z" fill="#545453"/>
<path d="M52.6369 28.0292L53.6579 30.247L53.6402 30.2771H53.2614L53.0631 29.8203H51.9829L51.7817 30.2771H51.4177L51.3999 30.247L52.4298 28.0292H52.634H52.6369ZM52.1102 29.5318H52.9418L52.5304 28.5761L52.1102 29.5318Z" fill="#545453"/>
<path d="M55.1549 30.2104C54.9862 30.1383 54.853 30.0391 54.7554 29.9159V29.8738L55.0188 29.5673H55.0543C55.1283 29.6515 55.223 29.7206 55.3384 29.7777C55.4538 29.8348 55.5633 29.8648 55.6698 29.8648C55.8888 29.8648 56.025 29.7777 56.025 29.6424C56.025 29.5823 55.9954 29.5282 55.9628 29.4982C55.9451 29.4832 55.9184 29.4681 55.8799 29.4501C55.8415 29.4351 55.8119 29.4231 55.7882 29.414C55.7645 29.405 55.7201 29.393 55.6669 29.378C55.6136 29.363 55.5692 29.3479 55.5396 29.3419C55.3621 29.2848 55.2348 29.2277 55.0927 29.1195C54.9507 29.0144 54.8678 28.8521 54.8678 28.6507C54.8678 28.4494 54.9448 28.2931 55.0987 28.1699C55.2526 28.0467 55.4538 27.9866 55.6994 27.9866C55.874 27.9866 56.0368 28.0166 56.1848 28.0797C56.3327 28.1428 56.4482 28.224 56.531 28.3262V28.3622L56.2706 28.6688H56.2321C56.0753 28.5035 55.9007 28.4223 55.7083 28.4223C55.5307 28.4223 55.4064 28.5005 55.4064 28.6237C55.4064 28.6928 55.439 28.7469 55.5159 28.792C55.5544 28.813 55.5899 28.831 55.6195 28.8431C55.6491 28.8551 55.6935 28.8731 55.7527 28.8941C56.0013 28.9753 56.1729 29.0414 56.2647 29.0955C56.4689 29.2217 56.5695 29.402 56.5725 29.6364C56.5725 29.8468 56.4896 30.0151 56.3239 30.1353C56.1581 30.2555 55.951 30.3186 55.7024 30.3186C55.5071 30.3186 55.3265 30.2825 55.1578 30.2074L55.1549 30.2104Z" fill="#3C3C3B"/>
<path d="M58.1297 28.0292L59.1478 30.235L59.1241 30.2771H58.5884L58.4257 29.8834H57.4905L57.3277 30.2771H56.8098L56.7861 30.235L57.8101 28.0292H58.1327H58.1297ZM57.6444 29.5107H58.2747L57.964 28.7474L57.6444 29.5107Z" fill="#3C3C3B"/>
<path d="M59.4053 28.0291H59.938V29.3063C59.938 29.4656 59.9853 29.5948 60.0771 29.691C60.1688 29.7872 60.2872 29.8353 60.4352 29.8353C60.5831 29.8353 60.7015 29.7872 60.7932 29.691C60.885 29.5948 60.9323 29.4656 60.9323 29.3063V28.0291H61.4532V29.2763C61.4532 29.5918 61.3615 29.8413 61.1721 30.0336C60.9856 30.2259 60.74 30.3191 60.4352 30.3191C60.1303 30.3191 59.8758 30.2259 59.6894 30.0336C59.5 29.8443 59.4053 29.5918 59.4053 29.2763V28.0291ZM60.7311 27.0645H60.7666L60.9649 27.404V27.4431L60.1481 27.8037H60.1096L59.9824 27.5904V27.5513L60.7281 27.0675L60.7311 27.0645Z" fill="#3C3C3B"/>
<path d="M63.0307 28.0292C63.3888 28.0292 63.6699 28.1314 63.883 28.3357C64.0931 28.5401 64.1967 28.8105 64.1967 29.1471C64.1967 29.4837 64.0931 29.7632 63.883 29.9675C63.6729 30.1749 63.3888 30.2771 63.0307 30.2771H62.063V28.0292H63.0307ZM63.013 29.8353C63.2053 29.8353 63.3622 29.7752 63.4776 29.652C63.593 29.5318 63.6522 29.3635 63.6522 29.1531C63.6522 28.9428 63.593 28.7775 63.4776 28.6543C63.3592 28.5341 63.2053 28.4709 63.013 28.4709H62.5927V29.8353H63.013Z" fill="#3C3C3B"/>
<path d="M66.3219 28.4709H65.2387V28.9367H66.0762V29.3605H65.2387V29.8353H66.3278V30.2771H64.709V28.0292H66.3219V28.4709Z" fill="#3C3C3B"/>
<defs>
<linearGradient id="paint0_linear_100_555" x1="4.12232" y1="-0.351717" x2="17.5548" y2="-0.351717" gradientUnits="userSpaceOnUse">
<stop stop-color="#DDB868"/>
<stop offset="0.51" stop-color="#F1DEB8"/>
<stop offset="0.6" stop-color="#EDD7A8"/>
<stop offset="1" stop-color="#DDB865"/>
</linearGradient>
<linearGradient id="paint1_linear_100_555" x1="5.14862" y1="2.85544" x2="17.2227" y2="2.85544" gradientUnits="userSpaceOnUse">
<stop stop-color="#BF9A38"/>
<stop offset="0.51" stop-color="#CEAC5E"/>
<stop offset="1" stop-color="#BF9936"/>
</linearGradient>
<linearGradient id="paint2_linear_100_555" x1="4.72369" y1="3.751" x2="17.4332" y2="3.751" gradientUnits="userSpaceOnUse">
<stop stop-color="#E0BC6E"/>
<stop offset="0.51" stop-color="#E4C78C"/>
<stop offset="1" stop-color="#E0BC6E"/>
</linearGradient>
<radialGradient id="paint3_radial_100_555" cx="0" cy="0" r="1" gradientUnits="userSpaceOnUse" gradientTransform="translate(11.0203 17.529) scale(11.2987 11.3136)">
<stop stop-color="#009D5C"/>
<stop offset="0.4" stop-color="#009452"/>
<stop offset="1" stop-color="#00803D"/>
</radialGradient>
<radialGradient id="paint4_radial_100_555" cx="0" cy="0" r="1" gradientUnits="userSpaceOnUse" gradientTransform="translate(8.60655 15.9121) scale(8.15626 8.16403)">
<stop stop-color="#E7F1E4"/>
<stop offset="0.15" stop-color="#DDEDE4"/>
<stop offset="0.39" stop-color="#C5E4E6"/>
<stop offset="0.69" stop-color="#9CD6EA"/>
<stop offset="1" stop-color="#6DC5EE"/>
</radialGradient>
<linearGradient id="paint5_linear_100_555" x1="4.07534" y1="17.3978" x2="15.7879" y2="17.3978" gradientUnits="userSpaceOnUse">
<stop stop-color="white"/>
<stop offset="0.19" stop-color="#FEFAF5"/>
<stop offset="0.51" stop-color="#FDEFDD"/>
<stop offset="0.9" stop-color="#FBDCB5"/>
<stop offset="1" stop-color="#FBD7AA"/>
</linearGradient>
<linearGradient id="paint6_linear_100_555" x1="4.59422" y1="18.6498" x2="12.4765" y2="18.6498" gradientUnits="userSpaceOnUse">
<stop stop-color="#00A9B3"/>
<stop offset="0.16" stop-color="#09ABB4"/>
<stop offset="0.44" stop-color="#21B0B9"/>
<stop offset="0.78" stop-color="#49B9C1"/>
<stop offset="1" stop-color="#68C0C8"/>
</linearGradient>
<linearGradient id="paint7_linear_100_555" x1="13.6203" y1="12.1152" x2="13.6203" y2="15.8331" gradientUnits="userSpaceOnUse">
<stop stop-color="#0E9D6C"/>
<stop offset="0.34" stop-color="#0A9562"/>
<stop offset="0.9" stop-color="#017F4A"/>
<stop offset="1" stop-color="#007B45"/>
</linearGradient>
<linearGradient id="paint8_linear_100_555" x1="9.55358" y1="16.2815" x2="16.6954" y2="16.2815" gradientUnits="userSpaceOnUse">
<stop stop-color="#ECBC8F"/>
<stop offset="0.26" stop-color="#E8B585"/>
<stop offset="0.7" stop-color="#DDA46D"/>
<stop offset="1" stop-color="#D49558"/>
</linearGradient>
<linearGradient id="paint9_linear_100_555" x1="13.289" y1="14.886" x2="13.289" y2="16.5496" gradientUnits="userSpaceOnUse">
<stop stop-color="#0E9D6C"/>
<stop offset="0.34" stop-color="#0A9562"/>
<stop offset="0.9" stop-color="#017F4A"/>
<stop offset="1" stop-color="#007B45"/>
</linearGradient>
<linearGradient id="paint10_linear_100_555" x1="7.7983" y1="16.3127" x2="9.57064" y2="16.3127" gradientUnits="userSpaceOnUse">
<stop stop-color="#E2E0E0"/>
<stop offset="0.4" stop-color="#E9E8E9"/>
<stop offset="1" stop-color="#FCFDFF"/>
</linearGradient>
<linearGradient id="paint11_linear_100_555" x1="7.96749" y1="12.2258" x2="8.87115" y2="12.2258" gradientUnits="userSpaceOnUse">
<stop stop-color="#E2E0E0"/>
<stop offset="0.4" stop-color="#E9E8E9"/>
<stop offset="1" stop-color="#FCFDFF"/>
</linearGradient>
</defs>
</svg>
